<svg width="542" height="387" viewBox="0 0 542 387" fill="none" xmlns="http://www.w3.org/2000/svg">
<path d="M427 0H0V387H427V0Z" fill="#D8DCF3"/>
<path fill-rule="evenodd" clip-rule="evenodd" d="M107.968 315.175H497.032V58.4968C497.032 56.0133 495.019 54 492.535 54H112.465C109.981 54 107.968 56.0133 107.968 58.4968V315.175Z" fill="black" stroke="#9FA2A5" stroke-width="10"/>
<path fill-rule="evenodd" clip-rule="evenodd" d="M63 305.461H542V315.354H63V305.461Z" fill="#D8D8D8"/>
<path fill-rule="evenodd" clip-rule="evenodd" d="M63 315.354H542C542 318.434 539.504 320.931 536.424 320.931H68.576C65.4965 320.931 63 318.434 63 315.354Z" fill="#9FA2A5"/>
<path fill-rule="evenodd" clip-rule="evenodd" d="M272.731 305.461H336.766L335.363 308.355C334.461 310.216 332.575 311.397 330.507 311.397H278.99C276.922 311.397 275.036 310.216 274.134 308.355L272.731 305.461Z" fill="#9FA2A5"/>
<mask id="mask0" mask-type="alpha" maskUnits="userSpaceOnUse" x="118" y="64" width="369" height="234">
<path d="M120.696 64H484.304C485.793 64 487 65.2248 487 66.7358V295.264C487 296.775 485.793 298 484.304 298H120.696C119.207 298 118 296.775 118 295.264V66.7358C118 65.2248 119.207 64 120.696 64Z" fill="#004E92"/>
</mask>
<g mask="url(#mask0)">
<path d="M120.559 63.8931H484.441C485.931 63.8931 487.139 65.101 487.139 66.5912V291.971C487.139 293.461 485.931 294.669 484.441 294.669H120.559C119.069 294.669 117.861 293.461 117.861 291.971V66.5912C117.861 65.101 119.069 63.8931 120.559 63.8931Z" fill="#004E92"/>
</g>
</svg>
