<svg width="284" height="250" viewBox="0 0 284 250" fill="none" xmlns="http://www.w3.org/2000/svg">
<g clip-path="url(#clip0)">
<path d="M240.472 92.9771C226.974 39.8987 180.333 1.58356 125.587 0.0467719C96.6442 -0.765678 66.1884 8.83333 44.0143 42.4238C4.37575 102.47 46.4502 143.964 75.7834 163.681C89.9549 173.226 102.724 184.703 113.721 197.78C133.535 221.292 171.652 250.509 217.047 204.73C249.95 171.55 249.464 128.333 240.472 92.9771Z" fill="white"/>
<path opacity="0.1" d="M141.882 235.032C220.241 235.032 283.764 231.821 283.764 227.86C283.764 223.899 220.241 220.688 141.882 220.688C63.5227 220.688 0 223.899 0 227.86C0 231.821 63.5227 235.032 141.882 235.032Z" fill="#F1F3F4"/>
<path opacity="0.1" d="M228.315 242.516C258.977 242.516 283.834 241.26 283.834 239.71C283.834 238.16 258.977 236.903 228.315 236.903C197.653 236.903 172.796 238.16 172.796 239.71C172.796 241.26 197.653 242.516 228.315 242.516Z" fill="#F1F3F4"/>
<path opacity="0.1" d="M123.501 250C154.164 250 179.02 248.744 179.02 247.194C179.02 245.644 154.164 244.387 123.501 244.387C92.8391 244.387 67.9824 245.644 67.9824 247.194C67.9824 248.744 92.8391 250 123.501 250Z" fill="#F1F3F4"/>
<path d="M212.473 109.192C212.473 109.192 221.905 109.054 219.895 111.89C217.886 114.726 210.09 114.528 210.09 114.528L212.473 109.192Z" fill="#67313A"/>
<path d="M183.461 74.2185L193.006 87.1774L201.259 97.0366C201.259 97.0366 209.809 105.956 210.763 107.189C211.716 108.423 214.518 108.07 213.921 109.95C213.325 111.83 212.435 114.961 211.504 115.287C210.574 115.612 206.199 115.052 205.879 114.433C205.558 113.814 185.118 102.262 177.824 93.9481L170.882 89.2363L170.778 81.2646L183.461 74.2185Z" fill="#6C63FF"/>
<path d="M183.461 74.2185L193.006 87.1774L201.259 97.0366C201.259 97.0366 209.809 105.956 210.763 107.189C211.716 108.423 214.518 108.07 213.921 109.95C213.325 111.83 212.435 114.961 211.504 115.287C210.574 115.612 206.199 115.052 205.879 114.433C205.558 113.814 185.118 102.262 177.824 93.9481L170.882 89.2363L170.778 81.2646L183.461 74.2185Z" fill="#F8E7F7"/>
<path opacity="0.1" d="M183.461 74.2185L193.006 87.1774L201.259 97.0366C201.259 97.0366 209.809 105.956 210.763 107.189C211.716 108.423 214.518 108.07 213.921 109.95C213.325 111.83 212.435 114.961 211.504 115.287C210.574 115.612 206.199 115.052 205.879 114.433C205.558 113.814 185.118 102.262 177.824 93.9481L170.882 89.2363L170.778 81.2646L183.461 74.2185Z" fill="black"/>
<path d="M187.409 68.204L189.393 72.8814H191.151L188.656 61.0319C188.656 53.4262 184.985 46.9996 177.379 46.9996H177.379C174.829 46.9996 172.383 48.0127 170.58 49.816C168.777 51.6193 167.764 54.0651 167.764 56.6154V68.2365C167.764 69.4684 168.253 70.6499 169.124 71.5209C169.995 72.392 171.177 72.8814 172.408 72.8814H186.045L187.409 68.204Z" fill="#171F4A"/>
<path d="M155.135 187.79C155.135 187.79 152.328 191.532 152.328 192.468C152.328 193.403 150.769 193.715 149.834 194.651C148.898 195.586 147.963 195.274 148.586 196.21C149.21 197.145 140.791 202.758 140.791 202.758L132.683 213.36L134.866 215.231L141.102 208.683L140.167 220.22L148.898 228.328C148.898 228.328 152.64 228.952 152.952 228.328C153.264 227.704 149.834 221.468 149.834 221.468C149.834 221.468 150.146 215.855 152.016 213.672C153.177 212.307 154.22 210.847 155.135 209.306C155.135 209.306 154.199 208.059 156.382 207.747C158.565 207.435 157.006 205.565 157.006 205.565C157.006 205.565 157.629 205.253 159.5 205.253C161.371 205.253 169.791 196.21 169.791 196.21L155.135 187.79Z" fill="#0D0D26"/>
<path d="M190.059 197.457C190.059 197.457 188.812 201.823 190.995 204.317C193.178 206.812 190.995 206.188 190.995 206.188C190.995 206.188 191.307 208.059 190.059 208.995C188.812 209.93 188.812 211.801 188.812 211.801C188.812 211.801 187.253 214.919 187.565 216.79C187.876 218.661 187.876 228.016 187.876 228.016H190.995V219.909L197.231 228.016H212.823C212.823 228.016 212.511 226.457 210.952 226.145C209.393 225.833 204.715 226.145 203.78 219.597C203.78 219.597 203.468 215.855 202.844 215.231C202.221 214.607 201.597 212.425 202.221 210.866C202.844 209.306 202.221 208.683 203.156 208.059C204.092 207.435 204.403 205.564 203.78 204.629C203.156 203.693 201.285 202.134 203.468 201.199C205.651 200.263 205.651 195.586 205.651 195.586L190.059 197.457Z" fill="#0D0D26"/>
<path d="M169.479 122.618C169.479 122.618 166.048 125.425 170.414 136.962C174.78 148.5 176.651 163.468 176.651 163.468C176.651 163.468 172.285 167.21 172.285 169.081C172.285 170.952 152.952 182.801 154.199 188.102C155.446 193.403 178.21 203.382 180.393 202.758C182.575 202.134 193.178 172.199 193.178 172.199C193.178 172.199 189.124 139.145 188.812 138.833C188.5 138.521 179.145 123.242 179.145 123.242L173.532 111.704L169.479 122.618Z" fill="#171F4A"/>
<path opacity="0.1" d="M169.479 122.618C169.479 122.618 166.048 125.425 170.414 136.962C174.78 148.5 176.651 163.468 176.651 163.468C176.651 163.468 172.285 167.21 172.285 169.081C172.285 170.952 152.952 182.801 154.199 188.102C155.446 193.403 178.21 203.382 180.393 202.758C182.575 202.134 193.178 172.199 193.178 172.199C193.178 172.199 189.124 139.145 188.812 138.833C188.5 138.521 179.145 123.242 179.145 123.242L173.532 111.704L169.479 122.618Z" fill="black"/>
<path d="M169.167 115.446C169.167 115.446 166.672 124.489 172.597 133.844C178.522 143.199 185.382 162.532 185.382 162.532C185.382 162.532 191.93 182.801 189.124 197.457C189.124 197.457 188.188 199.328 190.683 199.328C193.178 199.328 219.371 198.704 217.188 192.156C215.006 185.607 205.339 155.048 205.339 155.048L192.866 124.177L192.242 114.822L187.565 107.65H177.898L169.167 115.446Z" fill="#171F4A"/>
<path d="M125.545 124.801C125.545 124.801 116.112 124.801 118.163 127.607C120.213 130.414 128.006 130.102 128.006 130.102L125.545 124.801Z" fill="#67313A"/>
<path d="M174.936 60.4083C174.936 60.4083 175.559 64.7739 173.377 65.3976C171.194 66.0212 182.108 70.6987 182.108 70.6987C182.108 70.6987 184.291 63.2148 185.226 62.2793C186.161 61.3438 174.936 60.4083 174.936 60.4083Z" fill="#67313A"/>
<path opacity="0.2" d="M174.936 60.4083C174.936 60.4083 175.559 64.7739 173.377 65.3976C171.194 66.0212 182.108 70.6987 182.108 70.6987C182.108 70.6987 184.291 63.2148 185.226 62.2793C186.161 61.3438 174.936 60.4083 174.936 60.4083Z" fill="#0D0D26"/>
<path d="M183.667 67.5803C183.667 67.5803 174 64.7739 173.688 63.8384C173.376 62.9029 171.194 65.0857 170.258 66.6448C169.323 68.204 167.452 70.0749 166.516 70.0749C165.581 70.0749 158.72 74.1287 157.161 81.3008C156.448 84.584 155.407 86.4949 154.489 87.6019C153.798 88.5061 153.378 89.5874 153.278 90.7206C153.273 90.7729 153.255 90.8232 153.225 90.8665C153.195 90.9098 153.155 90.9446 153.108 90.9674C152.484 91.2793 166.204 104.376 166.204 104.376C166.204 104.376 171.505 103.129 172.441 104.376C173.376 105.623 171.817 107.806 170.882 109.053C169.946 110.301 167.763 116.537 169.011 117.473C170.258 118.408 176.807 109.053 180.548 110.924C184.29 112.795 188.032 111.236 188.032 111.236C188.032 111.236 189.591 116.226 192.086 116.226C194.581 116.226 195.204 112.172 194.269 110.924C193.333 109.677 189.591 107.183 191.462 103.752C193.333 100.322 193.957 94.0857 193.957 94.0857C193.957 94.0857 198.946 88.161 189.903 80.9889C189.903 80.9889 186.785 72.2577 185.85 71.6341C184.914 71.0104 183.355 70.6986 183.355 70.0749C183.355 69.4513 183.667 67.5803 183.667 67.5803Z" fill="#F8E7F7"/>
<path d="M154.043 89.4083L144.688 102.505L136.581 112.484C136.581 112.484 128.161 121.527 127.226 122.774C126.29 124.021 123.484 123.709 124.108 125.58C124.731 127.451 125.667 130.57 126.602 130.882C127.538 131.193 131.903 130.57 132.215 129.946C132.527 129.322 152.796 117.473 159.968 109.054L166.84 104.241L166.828 96.2686L154.043 89.4083Z" fill="#F8E7F7"/>
<path d="M172.938 104.712L191.013 105.289C191.217 105.295 191.411 105.38 191.553 105.527C191.695 105.673 191.775 105.869 191.775 106.073V106.362C191.775 106.468 191.753 106.573 191.711 106.67C191.67 106.768 191.609 106.856 191.532 106.929C191.456 107.002 191.365 107.059 191.266 107.097C191.166 107.134 191.061 107.151 190.955 107.146L172.879 106.281C172.677 106.272 172.487 106.185 172.347 106.039C172.207 105.893 172.129 105.699 172.129 105.497V105.497C172.129 105.391 172.15 105.288 172.191 105.191C172.232 105.094 172.292 105.006 172.368 104.933C172.443 104.86 172.532 104.803 172.63 104.765C172.728 104.727 172.833 104.709 172.938 104.712Z" fill="#0D0D26"/>
<path d="M191.463 108.118C191.635 108.118 191.775 107.35 191.775 106.403C191.775 105.456 191.635 104.688 191.463 104.688C191.29 104.688 191.151 105.456 191.151 106.403C191.151 107.35 191.29 108.118 191.463 108.118Z" fill="#0D0D26"/>
<path d="M181.172 65.3976C185.994 65.3976 189.903 61.4885 189.903 56.6664C189.903 51.8443 185.994 47.9352 181.172 47.9352C176.35 47.9352 172.441 51.8443 172.441 56.6664C172.441 61.4885 176.35 65.3976 181.172 65.3976Z" fill="#67313A"/>
<path d="M184.822 47.4166C183.13 46.9878 179.119 46.9997 178.532 46.9997C177.118 46.9997 175.717 47.2782 174.411 47.8193C173.105 48.3605 171.917 49.1536 170.918 50.1535C169.918 51.1534 169.125 52.3404 168.583 53.6469C168.042 54.9533 167.764 56.3535 167.764 57.7675L163.71 72.8814H171.601L173.065 67.2685L175.144 72.8814H179.116L179.457 69.5085L180.802 72.8814H185.226C181.912 65.3838 180.15 58.5496 184.503 54.3314C187.443 54.7318 189.922 53.9444 190.326 52.3506C190.792 50.5143 188.327 48.3053 184.822 47.4166Z" fill="#171F4A"/>
<path d="M10.259 100.821C9.4911 100.824 8.736 100.625 8.06974 100.243C7.40348 99.8613 6.84959 99.3108 6.46386 98.6468C6.07812 97.9828 5.87418 97.2289 5.87257 96.4611C5.87096 95.6932 6.07173 94.9384 6.45467 94.2729C12.0052 84.918 28.8751 63.0588 65.7333 63.0588C81.6989 63.0588 95.7 67.2997 107.331 75.6567C116.904 82.5169 122.268 90.2815 124.825 94.0234C125.149 94.4954 125.376 95.0271 125.494 95.5875C125.612 96.148 125.617 96.7262 125.51 97.2888C125.402 97.8513 125.184 98.387 124.869 98.8648C124.553 99.3427 124.146 99.7533 123.671 100.073C122.705 100.721 121.522 100.963 120.379 100.747C119.236 100.531 118.223 99.8746 117.559 98.9191C112.913 92.1836 98.8183 71.7277 65.7333 71.7277C33.4278 71.7277 18.8343 90.5621 14.0633 98.6385C13.683 99.3099 13.1293 99.8668 12.46 100.251C11.7907 100.635 11.0305 100.832 10.259 100.821V100.821Z" fill="#94248C"/>
<path d="M84.2871 186.387C83.9195 186.392 83.5527 186.35 83.1957 186.262C56.472 179.558 46.4935 152.554 46.0881 151.431L46.0257 151.182C45.8075 150.402 40.444 131.879 48.6763 121.028C52.4494 116.07 58.187 113.544 65.7645 113.544C72.8118 113.544 77.8946 115.758 81.3871 120.342C84.2559 124.084 85.4097 128.699 86.5323 133.158C88.871 142.419 90.5548 147.284 100.284 147.783C104.556 148.001 107.362 145.475 108.953 143.323C113.256 137.461 114.004 127.888 110.761 119.469C106.583 108.555 91.8022 88.0051 65.7333 88.0051C54.601 88.0051 44.373 91.6223 36.172 98.4201C29.3741 104.064 23.9795 112.016 21.3913 120.186C16.5891 135.403 22.8881 159.32 22.9504 159.539C23.097 160.091 23.1325 160.668 23.0547 161.235C22.977 161.801 22.7877 162.347 22.4977 162.84C22.2077 163.333 21.8228 163.763 21.3652 164.107C20.9077 164.45 20.3866 164.699 19.8321 164.84C18.7077 165.136 17.5117 164.979 16.5023 164.401C15.493 163.824 14.7513 162.872 14.4375 161.753C14.1569 160.661 7.42138 135.154 12.9719 117.566C19.0214 98.5137 37.6687 79.3051 65.7333 79.3051C78.7054 79.3051 90.9602 83.7642 101.188 92.1836C109.109 98.732 115.595 107.526 118.962 116.319C123.266 127.545 122.112 140.143 116.031 148.375C111.977 153.863 106.209 156.732 99.8162 156.42C83.1645 155.578 80.171 143.822 77.9882 135.247C75.743 126.454 74.3086 122.213 65.7333 122.213C61.0247 122.213 57.7193 123.522 55.6612 126.235C52.8548 129.946 52.6365 135.746 52.9483 139.956C52.9514 140 52.9546 140.044 52.9579 140.087C53.3704 145.443 54.9921 150.635 57.7009 155.274C62.0297 162.738 70.8104 174.185 85.3785 177.843C85.9348 177.978 86.4588 178.221 86.9204 178.56C87.382 178.898 87.7719 179.325 88.0677 179.815C88.3634 180.305 88.5591 180.848 88.6435 181.414C88.7278 181.981 88.6992 182.558 88.5591 183.113C88.3058 184.052 87.7501 184.882 86.9779 185.474C86.2057 186.066 85.26 186.386 84.2871 186.387V186.387Z" fill="#94248C"/>
<path d="M49.986 184.391C49.3857 184.392 48.7916 184.27 48.2395 184.034C47.6875 183.798 47.189 183.453 46.7742 183.019C36.0785 171.669 30.029 158.977 27.7527 143.105V143.012C26.4742 132.503 28.3451 117.629 37.5129 107.401C44.2796 99.8545 53.7903 96.019 65.7334 96.019C79.8592 96.019 90.9603 102.661 97.8829 115.196C101.011 120.962 103.061 127.249 103.932 133.75C104.035 134.903 103.68 136.05 102.943 136.944C102.207 137.837 101.149 138.404 99.9971 138.523C98.8456 138.642 97.6936 138.303 96.7903 137.579C95.8869 136.855 95.3049 135.804 95.17 134.655C94.4114 129.219 92.6678 123.967 90.0248 119.157C84.6614 109.584 76.4915 104.719 65.7022 104.719C56.3785 104.719 49.0817 107.557 44.0613 113.17C36.8269 121.246 35.4236 133.688 36.4215 141.92C38.4172 155.952 43.7495 167.116 53.1667 177.094C53.5598 177.51 53.8664 178 54.0685 178.535C54.2706 179.07 54.3642 179.64 54.3439 180.212C54.3236 180.783 54.1897 181.345 53.9502 181.865C53.7106 182.384 53.3701 182.851 52.9484 183.237C52.1381 183.976 51.0824 184.387 49.986 184.391V184.391Z" fill="#94248C"/>
<path d="M65.7955 143.667C68.8955 143.667 71.4084 141.154 71.4084 138.054C71.4084 134.954 68.8955 132.441 65.7955 132.441C62.6956 132.441 60.1826 134.954 60.1826 138.054C60.1826 141.154 62.6956 143.667 65.7955 143.667Z" fill="#94248C"/>
</g>
<defs>
<clipPath id="clip0">
<rect width="283.834" height="250" fill="white"/>
</clipPath>
</defs>
</svg>
