<svg width="42" height="42" viewBox="0 0 42 42" fill="none" xmlns="http://www.w3.org/2000/svg">
<path fill-rule="evenodd" clip-rule="evenodd" d="M10.8786 30.2745L14.8878 22.5707C15.7457 20.9222 14.9657 18.8179 13.1456 17.8707C11.3255 16.9235 9.15454 17.492 8.29662 19.1406L4.28745 26.8444L10.8786 30.2745ZM14.5191 15.2315C11.0897 13.4468 6.9992 14.518 5.38273 17.6242L0.274789 27.4393C0.12308 27.7309 0.260971 28.103 0.582851 28.2705L11.8362 34.1269C12.1581 34.2944 12.542 34.1938 12.6937 33.9023L17.8017 24.0871C19.4181 20.981 17.9485 17.0162 14.5191 15.2315Z" fill="#000428"/>
<path fill-rule="evenodd" clip-rule="evenodd" d="M10.3276 10.4586L17.4078 15.4878C18.9229 16.564 21.1143 16.0803 22.3025 14.4076C23.4907 12.7348 23.2257 10.5064 21.7106 9.43016L14.6304 4.40094L10.3276 10.4586ZM24.728 16.1306C26.9668 12.9787 26.4676 8.77989 23.6129 6.75215L14.5922 0.344601C14.3243 0.154292 13.9367 0.239768 13.7266 0.535592L6.38017 10.878C6.17005 11.1738 6.21696 11.5679 6.48487 11.7582L15.5055 18.1658C18.3602 20.1935 22.4893 19.2823 24.728 16.1306Z" fill="#004E92"/>
<path fill-rule="evenodd" clip-rule="evenodd" d="M30.4089 30.6488L23.003 26.1127C21.4183 25.142 19.2648 25.7735 18.1931 27.5232C17.1214 29.2729 17.5373 31.4782 19.1221 32.4489L26.5279 36.985L30.4089 30.6488ZM15.656 25.9692C13.6367 29.2659 14.4204 33.4211 17.4063 35.25L26.8418 41.0293C27.1221 41.201 27.5029 41.0894 27.6924 40.7799L34.3186 29.9619C34.5081 29.6524 34.4345 29.2625 34.1543 29.0908L24.7188 23.3115C21.7328 21.4826 17.6752 22.6725 15.656 25.9692Z" fill="#004E92"/>
<path fill-rule="evenodd" clip-rule="evenodd" d="M30.399 10.0949L26.682 17.9439C25.8866 19.6235 26.7451 21.6969 28.5995 22.5751C30.4539 23.4533 32.602 22.8036 33.3974 21.124L37.1143 13.275L30.399 10.0949ZM27.3261 25.264C30.8201 26.9187 34.8675 25.6946 36.3662 22.5299L41.1018 12.5298C41.2425 12.2328 41.0907 11.8661 40.7628 11.7108L29.2974 6.28119C28.9694 6.12589 28.5896 6.24083 28.4489 6.53784L23.7132 16.5379C22.2146 19.7026 23.8321 23.6094 27.3261 25.264Z" fill="#000428"/>
</svg>
