<svg width="168" height="46" viewBox="0 0 168 46" fill="none" xmlns="http://www.w3.org/2000/svg">
<path fill-rule="evenodd" clip-rule="evenodd" d="M10.8786 29.2745L14.8877 21.5707C15.7457 19.9222 14.9656 17.8179 13.1456 16.8707C11.3255 15.9235 9.1545 16.492 8.29658 18.1406L4.28741 25.8444L10.8786 29.2745ZM14.5191 14.2315C11.0897 12.4468 6.99916 13.518 5.38269 16.6241L0.274752 26.4393C0.123043 26.7308 0.260934 27.103 0.582814 27.2705L11.8362 33.1269C12.1581 33.2944 12.542 33.1938 12.6937 32.9023L17.8016 23.0871C19.4181 19.981 17.9484 16.0162 14.5191 14.2315Z" fill="white"/>
<path fill-rule="evenodd" clip-rule="evenodd" d="M10.3278 10.4586L17.408 15.4878C18.9231 16.564 21.1146 16.0803 22.3027 14.4076C23.4909 12.7348 23.226 10.5064 21.7109 9.43016L14.6306 4.40094L10.3278 10.4586ZM24.7283 16.1306C26.9671 12.9787 26.4678 8.77989 23.6131 6.75215L14.5925 0.3446C14.3245 0.154292 13.937 0.239768 13.7269 0.535592L6.38042 10.878C6.17029 11.1738 6.2172 11.5679 6.48512 11.7582L15.5058 18.1658C18.3605 20.1935 22.4895 19.2823 24.7283 16.1306Z" fill="white"/>
<path fill-rule="evenodd" clip-rule="evenodd" d="M30.4091 30.6488L23.0033 26.1127C21.4185 25.142 19.265 25.7735 18.1934 27.5232C17.1216 29.2729 17.5376 31.4782 19.1223 32.4489L26.5281 36.985L30.4091 30.6488ZM15.6562 25.9692C13.6369 29.2659 14.4206 33.4211 17.4066 35.25L26.8421 41.0293C27.1223 41.201 27.5032 41.0894 27.6927 40.7799L34.3188 29.9619C34.5083 29.6524 34.4347 29.2625 34.1545 29.0908L24.719 23.3115C21.733 21.4826 17.6755 22.6725 15.6562 25.9692Z" fill="white"/>
<path fill-rule="evenodd" clip-rule="evenodd" d="M30.3992 10.0949L26.6823 17.9439C25.8869 19.6235 26.7454 21.6969 28.5997 22.5751C30.4541 23.4533 32.6022 22.8036 33.3976 21.124L37.1146 13.275L30.3992 10.0949ZM27.3263 25.264C30.8204 26.9187 34.8677 25.6946 36.3664 22.5299L41.1021 12.5298C41.2427 12.2328 41.091 11.8661 40.763 11.7108L29.2976 6.28119C28.9697 6.12589 28.5898 6.24083 28.4491 6.53784L23.7135 16.5379C22.2148 19.7026 23.8324 23.6094 27.3263 25.264Z" fill="white"/>
<path d="M57.733 18.3636H53.8338V17.0469C53.8338 15.7173 54.3707 14.9375 55.9688 14.9375C56.6207 14.9375 57.2855 15.0781 57.7202 15.2188L58.679 11.1278C58.0014 10.9233 56.5057 10.5909 54.831 10.5909C51.1364 10.5909 48.3878 12.6747 48.3878 16.9446V18.3636H45.6136V22.4545H48.3878V38H53.8338V22.4545H57.733V18.3636ZM61.06 38H66.506V18.3636H61.06V38ZM63.7958 15.8324C65.4194 15.8324 66.7489 14.5923 66.7489 13.071C66.7489 11.5625 65.4194 10.3224 63.7958 10.3224C62.185 10.3224 60.8555 11.5625 60.8555 13.071C60.8555 14.5923 62.185 15.8324 63.7958 15.8324ZM76.3146 26.6477C76.3274 24.1165 77.8359 22.6335 80.0348 22.6335C82.2209 22.6335 83.5376 24.0653 83.5249 26.4688V38H88.9709V25.4972C88.9709 20.9205 86.2862 18.108 82.1953 18.108C79.2805 18.108 77.1712 19.5398 76.2891 21.8281H76.0589V18.3636H70.8686V38H76.3146V26.6477ZM103.708 18.3636H100.013V13.6591H94.5671V18.3636H91.8825V22.4545H94.5671V32.6818C94.5415 36.5298 97.1623 38.4347 101.113 38.2685C102.519 38.2173 103.516 37.9361 104.066 37.7571L103.209 33.7045C102.941 33.7557 102.365 33.8835 101.854 33.8835C100.767 33.8835 100.013 33.4744 100.013 31.9659V22.4545H103.708V18.3636ZM115.993 38.3835C120.851 38.3835 124.124 36.0185 124.891 32.375L119.854 32.0426C119.304 33.5384 117.898 34.3182 116.083 34.3182C113.36 34.3182 111.634 32.5156 111.634 29.5881V29.5753H125.006V28.0795C125.006 21.4062 120.966 18.108 115.776 18.108C109.998 18.108 106.252 22.2116 106.252 28.2713C106.252 34.4972 109.946 38.3835 115.993 38.3835ZM111.634 26.2003C111.749 23.9631 113.449 22.1733 115.865 22.1733C118.23 22.1733 119.867 23.8608 119.88 26.2003H111.634ZM137.432 38.3835C142.661 38.3835 145.946 35.3153 146.202 30.8026H141.063C140.743 32.8991 139.363 34.0753 137.496 34.0753C134.952 34.0753 133.303 31.9403 133.303 28.1818C133.303 24.4744 134.965 22.3523 137.496 22.3523C139.49 22.3523 140.769 23.669 141.063 25.625H146.202C145.972 21.0866 142.533 18.108 137.407 18.108C131.449 18.108 127.767 22.2372 127.767 28.2585C127.767 34.2287 131.385 38.3835 137.432 38.3835ZM155.135 26.6477C155.148 24.1165 156.695 22.6335 158.919 22.6335C161.131 22.6335 162.435 24.0526 162.422 26.4688V38H167.868V25.4972C167.881 20.8949 165.17 18.108 161.08 18.108C158.101 18.108 156.107 19.5142 155.212 21.8281H154.982V11.8182H149.689V38H155.135V26.6477Z" fill="white"/>
</svg>
