<svg width="168" height="46" viewBox="0 0 168 46" fill="none" xmlns="http://www.w3.org/2000/svg">
<path fill-rule="evenodd" clip-rule="evenodd" d="M10.8786 30.2745L14.8878 22.5707C15.7457 20.9222 14.9657 18.8179 13.1456 17.8707C11.3255 16.9235 9.15454 17.492 8.29662 19.1406L4.28745 26.8444L10.8786 30.2745ZM14.5191 15.2315C11.0897 13.4468 6.9992 14.518 5.38273 17.6242L0.274789 27.4393C0.12308 27.7309 0.260971 28.103 0.582851 28.2705L11.8362 34.1269C12.1581 34.2944 12.542 34.1938 12.6937 33.9023L17.8017 24.0871C19.4181 20.981 17.9485 17.0162 14.5191 15.2315Z" fill="#000428"/>
<path fill-rule="evenodd" clip-rule="evenodd" d="M10.3276 10.4586L17.4078 15.4878C18.9229 16.564 21.1143 16.0803 22.3025 14.4076C23.4907 12.7348 23.2257 10.5064 21.7106 9.43016L14.6304 4.40094L10.3276 10.4586ZM24.728 16.1306C26.9668 12.9787 26.4676 8.77989 23.6129 6.75215L14.5922 0.344601C14.3243 0.154292 13.9367 0.239768 13.7266 0.535592L6.38017 10.878C6.17005 11.1738 6.21696 11.5679 6.48487 11.7582L15.5055 18.1658C18.3602 20.1935 22.4893 19.2823 24.728 16.1306Z" fill="#004E92"/>
<path fill-rule="evenodd" clip-rule="evenodd" d="M30.4089 30.6488L23.003 26.1127C21.4183 25.142 19.2648 25.7735 18.1931 27.5232C17.1214 29.2729 17.5373 31.4782 19.1221 32.4489L26.5279 36.985L30.4089 30.6488ZM15.656 25.9692C13.6367 29.2659 14.4204 33.4211 17.4063 35.25L26.8418 41.0293C27.1221 41.201 27.5029 41.0894 27.6924 40.7799L34.3186 29.9619C34.5081 29.6524 34.4345 29.2625 34.1543 29.0908L24.7188 23.3115C21.7328 21.4826 17.6752 22.6725 15.656 25.9692Z" fill="#004E92"/>
<path fill-rule="evenodd" clip-rule="evenodd" d="M30.399 10.0949L26.682 17.9439C25.8866 19.6235 26.7451 21.6969 28.5995 22.5751C30.4539 23.4533 32.602 22.8036 33.3974 21.124L37.1143 13.275L30.399 10.0949ZM27.3261 25.264C30.8201 26.9187 34.8675 25.6946 36.3662 22.5299L41.1018 12.5298C41.2425 12.2328 41.0907 11.8661 40.7628 11.7108L29.2974 6.28119C28.9694 6.12589 28.5896 6.24083 28.4489 6.53784L23.7132 16.5379C22.2146 19.7026 23.8321 23.6094 27.3261 25.264Z" fill="#000428"/>
<path d="M57.7327 18.3636H53.8336V17.0469C53.8336 15.7173 54.3705 14.9375 55.9685 14.9375C56.6205 14.9375 57.2853 15.0781 57.7199 15.2188L58.6787 11.1278C58.0012 10.9233 56.5054 10.5909 54.8307 10.5909C51.1361 10.5909 48.3875 12.6747 48.3875 16.9446V18.3636H45.6134V22.4545H48.3875V38H53.8336V22.4545H57.7327V18.3636ZM61.0598 38H66.5058V18.3636H61.0598V38ZM63.7956 15.8324C65.4191 15.8324 66.7487 14.5923 66.7487 13.071C66.7487 11.5625 65.4191 10.3224 63.7956 10.3224C62.1848 10.3224 60.8552 11.5625 60.8552 13.071C60.8552 14.5923 62.1848 15.8324 63.7956 15.8324ZM76.3144 26.6477C76.3272 24.1165 77.8357 22.6335 80.0346 22.6335C82.2206 22.6335 83.5374 24.0653 83.5246 26.4688V38H88.9706V25.4972C88.9706 20.9205 86.286 18.108 82.1951 18.108C79.2803 18.108 77.1709 19.5398 76.2888 21.8281H76.0587V18.3636H70.8684V38H76.3144V26.6477ZM103.707 18.3636H100.013V13.6591H94.5669V18.3636H91.8822V22.4545H94.5669V32.6818C94.5413 36.5298 97.162 38.4347 101.112 38.2685C102.519 38.2173 103.516 37.9361 104.065 37.7571L103.209 33.7045C102.94 33.7557 102.365 33.8835 101.854 33.8835C100.767 33.8835 100.013 33.4744 100.013 31.9659V22.4545H103.707V18.3636ZM115.993 38.3835C120.851 38.3835 124.124 36.0185 124.891 32.375L119.854 32.0426C119.304 33.5384 117.898 34.3182 116.082 34.3182C113.359 34.3182 111.634 32.5156 111.634 29.5881V29.5753H125.006V28.0795C125.006 21.4062 120.966 18.108 115.776 18.108C109.997 18.108 106.252 22.2116 106.252 28.2713C106.252 34.4972 109.946 38.3835 115.993 38.3835ZM111.634 26.2003C111.749 23.9631 113.449 22.1733 115.865 22.1733C118.23 22.1733 119.867 23.8608 119.879 26.2003H111.634ZM137.432 38.3835C142.661 38.3835 145.946 35.3153 146.202 30.8026H141.063C140.743 32.8991 139.362 34.0753 137.496 34.0753C134.952 34.0753 133.303 31.9403 133.303 28.1818C133.303 24.4744 134.965 22.3523 137.496 22.3523C139.49 22.3523 140.769 23.669 141.063 25.625H146.202C145.972 21.0866 142.533 18.108 137.406 18.108C131.449 18.108 127.767 22.2372 127.767 28.2585C127.767 34.2287 131.385 38.3835 137.432 38.3835ZM155.135 26.6477C155.147 24.1165 156.694 22.6335 158.919 22.6335C161.13 22.6335 162.434 24.0526 162.422 26.4688V38H167.868V25.4972C167.88 20.8949 165.17 18.108 161.079 18.108C158.101 18.108 156.106 19.5142 155.211 21.8281H154.981V11.8182H149.689V38H155.135V26.6477Z" fill="#004E92"/>
</svg>
