<svg width="120" height="40" viewBox="0 0 120 40" fill="none" xmlns="http://www.w3.org/2000/svg">
<rect width="120" height="40" fill="#171F4A"/>
<path d="M45.7749 25.665C44.8314 25.4061 44.1125 25.061 43.5284 24.6728L44.5169 22.5589C45.0561 22.9472 45.6851 23.2491 46.4489 23.4648C47.2127 23.6805 47.9316 23.81 48.6954 23.81C49.5041 23.81 50.1331 23.6805 50.5375 23.4648C50.9419 23.2491 51.1216 22.904 51.1216 22.5158C51.1216 22.2138 50.9868 21.9981 50.7621 21.7824C50.5375 21.6098 50.223 21.4373 49.8636 21.3079C49.5041 21.1784 49.0099 21.049 48.3809 20.9196C47.4373 20.7039 46.6286 20.4882 46.0445 20.2725C45.4155 20.0568 44.9213 19.7117 44.472 19.2372C44.0227 18.7626 43.798 18.1155 43.798 17.2959C43.798 16.6056 43.9777 15.9585 44.3821 15.3977C44.7865 14.8369 45.3706 14.3624 46.1793 14.0604C46.988 13.7153 47.9316 13.5427 49.0997 13.5427C49.9085 13.5427 50.6723 13.629 51.4361 13.8016C52.1999 13.9741 52.8738 14.233 53.4579 14.5781L52.5593 16.6919C51.3912 16.0448 50.223 15.7428 49.0548 15.7428C48.2461 15.7428 47.6171 15.8723 47.2576 16.1311C46.8533 16.3899 46.6735 16.7351 46.6735 17.1233C46.6735 17.5116 46.8982 17.8567 47.3475 18.0292C47.7968 18.2449 48.4707 18.4175 49.4143 18.6332C50.3578 18.8489 51.1665 19.0646 51.7506 19.2803C52.3347 19.496 52.8738 19.8411 53.3231 20.3156C53.7724 20.7902 53.9971 21.4373 53.9971 22.2138C53.9971 22.904 53.8174 23.5511 53.413 24.1119C53.0086 24.6728 52.4245 25.1473 51.6158 25.4493C50.8071 25.7944 49.8186 25.9669 48.6954 25.9669C47.662 26.0532 46.7185 25.9238 45.7749 25.665Z" fill="white"/>
<path d="M66.5774 16.5625V25.8375H63.8816V24.759C63.2077 25.5786 62.1743 25.9669 60.8713 25.9669C59.9727 25.9669 59.119 25.7512 58.4002 25.3629C57.6813 24.9747 57.0972 24.4139 56.6479 23.6805C56.2435 22.9471 56.0189 22.1275 56.0189 21.1784C56.0189 20.2293 56.2435 19.3665 56.6479 18.6763C57.0523 17.9429 57.6364 17.3821 58.4002 16.9938C59.119 16.6056 59.9727 16.3899 60.8713 16.3899C62.0844 16.3899 63.0729 16.7781 63.7468 17.5115V16.5193H66.5774V16.5625ZM63.1178 23.0765C63.5671 22.602 63.8367 21.998 63.8367 21.2215C63.8367 20.445 63.612 19.7979 63.1178 19.3665C62.6236 18.9351 62.0844 18.6763 61.3655 18.6763C60.6467 18.6763 60.0626 18.892 59.5684 19.3665C59.0741 19.8411 58.8495 20.445 58.8495 21.2215C58.8495 21.998 59.0741 22.6451 59.5684 23.0765C60.0626 23.5079 60.6467 23.7668 61.3655 23.7668C62.0844 23.7668 62.6685 23.5511 63.1178 23.0765Z" fill="white"/>
<path d="M79.5622 16.5625L75.4735 25.8375H72.598L68.5544 16.5625H71.4299L74.1256 22.8609L76.9113 16.5625H79.5622Z" fill="white"/>
<path d="M90.525 21.9551H83.2015C83.3362 22.5159 83.6508 22.9904 84.145 23.3355C84.6392 23.6806 85.2682 23.8532 85.9871 23.8532C86.4813 23.8532 86.9306 23.7669 87.335 23.6375C87.7394 23.5081 88.0988 23.2492 88.4133 22.9473L89.896 24.5003C88.9974 25.4925 87.6495 26.0102 85.8972 26.0102C84.8189 26.0102 83.8305 25.7945 83.0217 25.4062C82.1681 25.018 81.539 24.414 81.0897 23.7238C80.6405 22.9904 80.4158 22.1707 80.4158 21.2648C80.4158 20.3589 80.6405 19.5392 81.0897 18.8059C81.539 18.0725 82.1681 17.5117 82.9319 17.0803C83.6957 16.692 84.5943 16.4763 85.5827 16.4763C86.5263 16.4763 87.3799 16.692 88.1437 17.0803C88.9075 17.4685 89.4916 18.0293 89.9409 18.7627C90.3902 19.4961 90.6149 20.3589 90.6149 21.308C90.5699 21.2648 90.5699 21.5237 90.525 21.9551ZM83.9653 18.9784C83.516 19.3235 83.2913 19.7981 83.1565 20.402H87.9191C87.8292 19.7981 87.5596 19.3667 87.1103 18.9784C86.661 18.6333 86.1668 18.4607 85.5378 18.4607C84.9088 18.4607 84.4146 18.6333 83.9653 18.9784Z" fill="white"/>
<path d="M101.713 23.5512V25.8376H92.1874V24.0257L97.0398 19.6255C97.5341 19.151 97.8935 18.7627 98.0732 18.4176C98.2529 18.0725 98.3428 17.7273 98.3428 17.4254C98.3428 16.9508 98.1631 16.5626 97.8486 16.3037C97.4891 16.0449 96.9949 15.9155 96.3659 15.9155C95.8267 15.9155 95.3325 16.0018 94.8832 16.2175C94.4339 16.4332 94.0745 16.7351 93.76 17.1234L91.6483 15.8292C92.1425 15.139 92.8164 14.5781 93.6701 14.1899C94.5238 13.8016 95.5122 13.5859 96.6355 13.5859C97.579 13.5859 98.3877 13.7154 99.1066 14.0173C99.8255 14.3193 100.365 14.7076 100.724 15.2684C101.084 15.8292 101.308 16.4332 101.308 17.1665C101.308 17.8136 101.173 18.4176 100.859 19.0215C100.589 19.5823 100.005 20.2726 99.1965 21.006L96.321 23.6375H101.713V23.5512Z" fill="white"/>
<path d="M115.551 20.6607C115.955 21.1784 116.18 21.7823 116.18 22.5589C116.18 23.6374 115.731 24.4139 114.877 25.0178C114.023 25.5786 112.765 25.8806 111.148 25.8806H104.633V13.8015H110.788C112.316 13.8015 113.484 14.1035 114.338 14.6643C115.147 15.2251 115.551 16.0016 115.551 16.9507C115.551 17.5547 115.416 18.0723 115.102 18.5037C114.787 18.9783 114.383 19.3234 113.889 19.5822C114.562 19.7979 115.147 20.143 115.551 20.6607ZM107.509 15.8722V18.7194H110.384C111.103 18.7194 111.642 18.59 112.001 18.3743C112.361 18.1155 112.541 17.7704 112.541 17.2958C112.541 16.8213 112.361 16.4762 112.001 16.2173C111.642 16.0016 111.103 15.8722 110.384 15.8722H107.509ZM112.631 23.3785C113.035 23.1197 113.215 22.7746 113.215 22.2569C113.215 21.2647 112.451 20.747 110.878 20.747H107.464V23.7236H110.878C111.687 23.7236 112.271 23.5942 112.631 23.3785Z" fill="white"/>
<path fill-rule="evenodd" clip-rule="evenodd" d="M31.6205 16.3101V8.61659C31.6205 6.97027 30.2305 5.63566 28.5159 5.63566C26.8012 5.63566 25.4112 6.97027 25.4112 8.61659V16.3101H31.6205ZM28.5159 3C25.2852 3 22.6662 5.51463 22.6662 8.61659V18.4186C22.6662 18.7097 22.912 18.9457 23.2152 18.9457H33.8165C34.1197 18.9457 34.3655 18.7097 34.3655 18.4186V8.61659C34.3655 5.51463 31.7465 3 28.5159 3Z" fill="white"/>
<path fill-rule="evenodd" clip-rule="evenodd" d="M17.8624 10.2164L9.84966 10.2164C8.13502 10.2164 6.74503 11.5511 6.74503 13.1974C6.74503 14.8437 8.13502 16.1783 9.84966 16.1783L17.8624 16.1783L17.8624 10.2164ZM4 13.1974C4 16.2993 6.61898 18.814 9.84966 18.814L20.0584 18.814C20.3616 18.814 20.6074 18.578 20.6074 18.2868L20.6074 8.10792C20.6074 7.81679 20.3616 7.58079 20.0584 7.58079L9.84966 7.58079C6.61898 7.58079 4 10.0954 4 13.1974Z" fill="white"/>
<path fill-rule="evenodd" clip-rule="evenodd" d="M11.5159 23.6899V31.3834C11.5159 33.0297 12.9059 34.3643 14.6206 34.3643C16.3352 34.3643 17.7252 33.0297 17.7252 31.3834V23.6899H11.5159ZM14.6206 37C17.8512 37 20.4702 34.4854 20.4702 31.3834V21.5814C20.4702 21.2903 20.2244 21.0543 19.9212 21.0543H9.31989C9.01669 21.0543 8.77089 21.2903 8.77089 21.5814V31.3834C8.77089 34.4854 11.3899 37 14.6206 37Z" fill="white"/>
<path fill-rule="evenodd" clip-rule="evenodd" d="M25.274 29.7836L33.2867 29.7836C35.0014 29.7836 36.3914 28.4489 36.3914 26.8026C36.3914 25.1563 35.0014 23.8217 33.2867 23.8217L25.274 23.8217L25.274 29.7836ZM39.1364 26.8026C39.1364 23.7007 36.5174 21.186 33.2867 21.186L23.078 21.186C22.7748 21.186 22.529 21.422 22.529 21.7132L22.529 31.8921C22.529 32.1832 22.7748 32.4192 23.078 32.4192L33.2867 32.4192C36.5174 32.4192 39.1364 29.9046 39.1364 26.8026Z" fill="white"/>
</svg>
