<svg width="32" height="32" viewBox="0 0 32 32" fill="none" xmlns="http://www.w3.org/2000/svg">
<circle cx="16" cy="16" r="16" fill="white"/>
<path d="M21.052 20.434V22H11.998V20.776L17.128 15.826C17.752 15.226 18.172 14.71 18.388 14.278C18.604 13.834 18.712 13.39 18.712 12.946C18.712 12.286 18.478 11.776 18.01 11.416C17.554 11.044 16.894 10.858 16.03 10.858C14.638 10.858 13.564 11.314 12.808 12.226L11.584 11.164C12.076 10.564 12.718 10.096 13.51 9.76C14.314 9.424 15.208 9.256 16.192 9.256C17.512 9.256 18.562 9.574 19.342 10.21C20.122 10.834 20.512 11.686 20.512 12.766C20.512 13.438 20.368 14.074 20.08 14.674C19.792 15.274 19.246 15.958 18.442 16.726L14.59 20.434H21.052Z" fill="#2C3C90"/>
</svg>
