<svg width="122" height="43" viewBox="0 0 122 43" fill="none" xmlns="http://www.w3.org/2000/svg">
<path fill-rule="evenodd" clip-rule="evenodd" d="M31.5737 17.7016V9.78178C31.5737 8.08704 30.186 6.71318 28.4743 6.71318C26.7625 6.71318 25.3749 8.08704 25.3749 9.78178V17.7016H31.5737ZM28.4743 4C25.2491 4 22.6345 6.58859 22.6345 9.78178V19.8721C22.6345 20.1718 22.8799 20.4147 23.1826 20.4147H33.766C34.0687 20.4147 34.314 20.1718 34.314 19.8721V9.78178C34.314 6.58859 31.6995 4 28.4743 4Z" fill="white"/>
<path fill-rule="evenodd" clip-rule="evenodd" d="M17.8389 11.4287L9.83976 11.4287C8.12802 11.4287 6.74038 12.8025 6.74038 14.4973C6.74038 16.192 8.12802 17.5659 9.83976 17.5659L17.8389 17.5659L17.8389 11.4287ZM4 14.4973C4 17.6905 6.61455 20.2791 9.83976 20.2791L20.0312 20.2791C20.3339 20.2791 20.5793 20.0361 20.5793 19.7364L20.5793 9.25812C20.5793 8.95843 20.3339 8.71549 20.0313 8.71549L9.83976 8.71549C6.61455 8.71549 4 11.3041 4 14.4973Z" fill="white"/>
<path fill-rule="evenodd" clip-rule="evenodd" d="M11.5032 25.2984V33.2182C11.5032 34.913 12.8909 36.2868 14.6026 36.2868C16.3144 36.2868 17.702 34.913 17.702 33.2182V25.2984H11.5032ZM14.6026 39C17.8278 39 20.4424 36.4114 20.4424 33.2182V23.1279C20.4424 22.8282 20.197 22.5853 19.8943 22.5853H9.31094C9.00825 22.5853 8.76286 22.8282 8.76286 23.1279V33.2182C8.76286 36.4114 11.3774 39 14.6026 39Z" fill="white"/>
<path fill-rule="evenodd" clip-rule="evenodd" d="M25.2382 31.5713L33.2374 31.5713C34.9491 31.5713 36.3368 30.1975 36.3368 28.5027C36.3368 26.808 34.9491 25.4341 33.2374 25.4341L25.2382 25.4341L25.2382 31.5713ZM39.0771 28.5027C39.0771 25.3095 36.4626 22.7209 33.2374 22.7209L23.0459 22.7209C22.7432 22.7209 22.4978 22.9639 22.4978 23.2636L22.4978 33.7419C22.4978 34.0416 22.7432 34.2845 23.0459 34.2845L33.2374 34.2845C36.4626 34.2845 39.0771 31.6959 39.0771 28.5027Z" fill="white"/>
<path d="M49.6438 13.0217C48.1133 12.8854 47.348 13.5263 47.348 14.9444V15.1353H49.6438V17.1534H47.3343V24.8576H45.2298V17.167H43.7539V15.1489H45.2298V14.958C45.2298 13.6217 45.5988 12.6127 46.3504 11.9172C47.102 11.2218 48.1953 10.9218 49.6302 11.0173V13.0217H49.6438Z" fill="white"/>
<path d="M57.2968 15.1489H59.4013V24.8712H57.2968V23.6304C56.6545 24.6258 55.6569 25.1303 54.2766 25.1303C53.1561 25.1303 52.2541 24.7758 51.5708 24.0667C50.8875 23.3577 50.5322 22.3759 50.5322 21.135V15.1489H52.6368V20.9032C52.6368 21.6259 52.8281 22.185 53.2244 22.5804C53.6207 22.9759 54.14 23.1668 54.8233 23.1668C55.5612 23.1668 56.1625 22.935 56.6135 22.4713C57.0645 22.0077 57.2968 21.3123 57.2968 20.3578V15.1489Z" fill="white"/>
<path d="M66.6715 14.8899C67.7921 14.8899 68.6941 15.2444 69.3774 15.9535C70.0606 16.6625 70.416 17.6443 70.416 18.8852V24.8577H68.3114V19.117C68.3114 18.3943 68.1201 17.8352 67.7238 17.4398C67.3275 17.0443 66.8082 16.8534 66.1249 16.8534C65.387 16.8534 64.7857 17.0853 64.3347 17.5489C63.8837 18.0125 63.6514 18.7079 63.6514 19.6624V24.8713H61.5469V15.149H63.6514V16.3898C64.28 15.3944 65.2913 14.8899 66.6715 14.8899Z" fill="white"/>
<path d="M80.1321 11.2632H82.2366V24.8717H80.1321V23.4672C79.3394 24.5717 78.2052 25.1171 76.7293 25.1171C75.39 25.1171 74.2421 24.6263 73.2992 23.6308C72.3562 22.6354 71.8779 21.4355 71.8779 20.0037C71.8779 18.5583 72.3562 17.3584 73.2992 16.363C74.2421 15.3812 75.39 14.8903 76.7293 14.8903C78.2052 14.8903 79.3531 15.4357 80.1321 16.5266V11.2632ZM74.8571 22.2264C75.4447 22.8127 76.169 23.1127 77.0573 23.1127C77.9455 23.1127 78.6698 22.8127 79.2574 22.2264C79.8451 21.64 80.1321 20.8901 80.1321 20.0037C80.1321 19.1038 79.8451 18.3674 79.2574 17.7811C78.6698 17.1948 77.9455 16.8948 77.0573 16.8948C76.169 16.8948 75.4447 17.1948 74.8571 17.7811C74.2694 18.3674 73.9825 19.1174 73.9825 20.0037C73.9688 20.9037 74.2694 21.64 74.8571 22.2264Z" fill="white"/>
<path d="M90.1353 14.8767C91.4199 14.8767 92.5132 15.3676 93.4288 16.363C94.3444 17.3584 94.7954 18.572 94.7954 20.0037C94.7954 21.4355 94.3444 22.6627 93.4288 23.6445C92.5132 24.6399 91.4199 25.1308 90.1353 25.1308C88.8918 25.1308 87.9215 24.7353 87.2382 23.9445V24.8581H84.3137V11.2632H87.2382V16.063C87.9215 15.2721 88.8918 14.8767 90.1353 14.8767ZM87.8942 21.7355C88.3315 22.1582 88.8781 22.3764 89.5614 22.3764C90.231 22.3764 90.7913 22.1582 91.2286 21.7355C91.6659 21.3128 91.8846 20.7264 91.8846 20.0037C91.8846 19.281 91.6659 18.6947 91.2286 18.272C90.7913 17.8493 90.2447 17.6311 89.5614 17.6311C88.8918 17.6311 88.3315 17.8493 87.8942 18.272C87.4568 18.6947 87.2382 19.281 87.2382 20.0037C87.2382 20.7264 87.4568 21.3128 87.8942 21.7355Z" fill="white"/>
<path d="M103.282 15.149H106.206V24.8713H103.282V23.9577C102.598 24.7486 101.628 25.144 100.385 25.144C99.1001 25.144 98.0068 24.6531 97.0912 23.6577C96.1756 22.6623 95.7246 21.4487 95.7246 20.017C95.7246 18.5716 96.1756 17.358 97.0912 16.3762C98.0068 15.3808 99.1001 14.8899 100.385 14.8899C101.628 14.8899 102.598 15.2853 103.282 16.0762V15.149ZM99.2777 21.7351C99.7013 22.1578 100.262 22.3759 100.959 22.3759C101.642 22.3759 102.202 22.1578 102.639 21.7351C103.077 21.3124 103.282 20.726 103.282 20.0033C103.282 19.2806 103.063 18.6943 102.639 18.2716C102.216 17.8489 101.656 17.6307 100.959 17.6307C100.275 17.6307 99.715 17.8489 99.2777 18.2716C98.8541 18.6943 98.6354 19.2806 98.6354 20.0033C98.6354 20.726 98.8541 21.3124 99.2777 21.7351Z" fill="white"/>
<path d="M110.716 21.176C111.058 22.0896 111.836 22.5395 113.053 22.5395C113.845 22.5395 114.474 22.2941 114.925 21.8032L117.262 23.1395C116.305 24.4758 114.884 25.144 113.012 25.144C111.372 25.144 110.06 24.6531 109.09 23.6849C108.106 22.7168 107.614 21.4896 107.614 20.0169C107.614 18.5579 108.092 17.3307 109.062 16.3489C110.033 15.3671 111.276 14.8762 112.793 14.8762C114.214 14.8762 115.39 15.3671 116.333 16.3489C117.275 17.3307 117.74 18.5442 117.74 20.0169C117.74 20.426 117.699 20.8214 117.617 21.1896H110.716V21.176ZM110.661 18.9942H114.857C114.57 17.9715 113.886 17.4534 112.793 17.4534C111.645 17.4534 110.948 17.9715 110.661 18.9942Z" fill="white"/>
<path d="M69.3363 28.5533C69.7053 28.5533 70.0333 28.6897 70.2929 28.9487C70.5526 29.2078 70.6892 29.5351 70.6892 29.9033C70.6892 30.2851 70.5526 30.5987 70.2929 30.8578C70.0333 31.1168 69.7189 31.2532 69.3363 31.2532C69.0903 31.2532 68.8717 31.1987 68.6803 31.0759C68.489 30.9532 68.3387 30.8032 68.2294 30.5987V31.1987H67.9697V27.5715H68.2294V29.2078C68.3387 29.0033 68.489 28.8397 68.6803 28.7306C68.8717 28.6079 69.0903 28.5533 69.3363 28.5533ZM68.5437 30.6805C68.7623 30.8987 69.022 31.0078 69.3226 31.0078C69.637 31.0078 69.8966 30.8987 70.1016 30.6805C70.3202 30.4623 70.4159 30.2032 70.4159 29.9033C70.4159 29.5896 70.3066 29.3306 70.1016 29.126C69.8829 28.9078 69.6233 28.7988 69.3226 28.7988C69.0083 28.7988 68.7487 28.9078 68.5437 29.126C68.325 29.3442 68.2294 29.6033 68.2294 29.9033C68.2157 30.2032 68.325 30.4623 68.5437 30.6805Z" fill="white"/>
<path d="M72.5614 28.553C72.9441 28.553 73.2447 28.6893 73.4907 28.9621C73.723 29.2348 73.846 29.5484 73.846 29.9166C73.846 29.9302 73.846 29.9575 73.846 29.9847C73.846 30.012 73.846 30.0393 73.846 30.0529H71.4955C71.5228 30.3393 71.6458 30.5711 71.8508 30.7483C72.0558 30.9256 72.3018 31.0211 72.6024 31.0211C72.8074 31.0211 72.9987 30.9801 73.1491 30.8847C73.2994 30.7892 73.4224 30.6802 73.5044 30.5438L73.7367 30.6802C73.6274 30.8574 73.477 31.0074 73.2857 31.1029C73.0944 31.1983 72.8621 31.2665 72.6161 31.2665C72.2198 31.2665 71.8918 31.1438 71.6322 30.8847C71.3725 30.6256 71.2495 30.312 71.2495 29.9166C71.2495 29.5348 71.3725 29.2075 71.6322 28.9484C71.8508 28.6757 72.1651 28.553 72.5614 28.553ZM72.5614 28.7984C72.2608 28.7984 72.0148 28.8939 71.8235 29.0711C71.6322 29.2484 71.5092 29.4938 71.4818 29.7802H73.5727C73.5454 29.4666 73.436 29.2348 73.2447 29.0575C73.0534 28.8802 72.8211 28.7984 72.5614 28.7984Z" fill="white"/>
<path d="M75.6634 27.7623C75.1441 27.7214 74.8844 27.9532 74.8844 28.4714V28.6077H75.6634V28.8668H74.8844V31.1985H74.6248V28.8532H74.1738V28.5941H74.6248V28.4577C74.6248 28.1305 74.7205 27.885 74.8981 27.7214C75.0758 27.5578 75.3354 27.4759 75.6634 27.5032V27.7623Z" fill="white"/>
<path d="M77.2352 31.2529C76.8526 31.2529 76.5383 31.1165 76.265 30.8574C76.0053 30.5983 75.8687 30.2711 75.8687 29.9029C75.8687 29.5211 76.0053 29.2075 76.265 28.9484C76.5246 28.6893 76.8526 28.553 77.2352 28.553C77.6179 28.553 77.9322 28.6893 78.1918 28.9484C78.4515 29.2075 78.5881 29.5348 78.5881 29.9029C78.5881 30.2847 78.4515 30.5983 78.1918 30.8574C77.9322 31.1165 77.6179 31.2529 77.2352 31.2529ZM76.4563 30.6802C76.6749 30.8983 76.9346 31.0074 77.2352 31.0074C77.5359 31.0074 77.8092 30.8983 78.0142 30.6802C78.2192 30.462 78.3285 30.2029 78.3285 29.9029C78.3285 29.5893 78.2192 29.3302 78.0142 29.1257C77.8092 28.9075 77.5495 28.7984 77.2352 28.7984C76.9209 28.7984 76.6613 28.9075 76.4563 29.1257C76.2376 29.3439 76.142 29.6029 76.142 29.9029C76.142 30.2029 76.2513 30.462 76.4563 30.6802Z" fill="white"/>
<path d="M79.5585 29.1121C79.7088 28.7439 80.0094 28.5667 80.4194 28.5667V28.8121C80.1734 28.8121 79.9684 28.8939 79.8045 29.0439C79.6405 29.2075 79.5585 29.4393 79.5585 29.7393V31.1847H79.2988V28.5939H79.5585V29.1121Z" fill="white"/>
<path d="M82.0453 28.553C82.428 28.553 82.7286 28.6893 82.9746 28.9621C83.2069 29.2348 83.3299 29.5484 83.3299 29.9166C83.3299 29.9302 83.3299 29.9575 83.3299 29.9847C83.3299 30.012 83.3299 30.0393 83.3299 30.0529H80.9794C81.0067 30.3393 81.1297 30.5711 81.3347 30.7483C81.5397 30.9256 81.7857 31.0211 82.0863 31.0211C82.2913 31.0211 82.4826 30.9801 82.6329 30.8847C82.7833 30.7892 82.9063 30.6802 82.9882 30.5438L83.2206 30.6802C83.1112 30.8574 82.9609 31.0074 82.7696 31.1029C82.5783 31.1983 82.346 31.2665 82.1 31.2665C81.7037 31.2665 81.3757 31.1438 81.116 30.8847C80.8564 30.6256 80.7334 30.312 80.7334 29.9166C80.7334 29.5348 80.8564 29.2075 81.116 28.9484C81.3347 28.6757 81.649 28.553 82.0453 28.553ZM82.0453 28.7984C81.7447 28.7984 81.4987 28.8939 81.3074 29.0711C81.116 29.2484 80.993 29.4938 80.9657 29.7802H83.0566C83.0292 29.4666 82.9199 29.2348 82.7286 29.0575C82.5373 28.8802 82.305 28.7984 82.0453 28.7984Z" fill="white"/>
<path d="M87.8671 28.6076H88.1267V31.1984H87.8671V30.612C87.7577 30.8166 87.6074 30.9666 87.4161 31.0893C87.2248 31.212 87.0061 31.2665 86.7601 31.2665C86.3912 31.2665 86.0769 31.1302 85.8035 30.8711C85.5439 30.612 85.4072 30.2848 85.4072 29.9166C85.4072 29.5348 85.5439 29.2212 85.8035 28.9621C86.0632 28.703 86.3775 28.5667 86.7601 28.5667C87.0061 28.5667 87.2248 28.6212 87.4161 28.7439C87.6074 28.8666 87.7577 29.0166 87.8671 29.2212V28.6076ZM85.9949 30.6802C86.2135 30.8984 86.4732 31.0075 86.7738 31.0075C87.0744 31.0075 87.3478 30.8984 87.5528 30.6802C87.7577 30.462 87.8671 30.2029 87.8671 29.903C87.8671 29.5893 87.7577 29.3303 87.5528 29.1257C87.3478 28.9075 87.0881 28.7985 86.7738 28.7985C86.4595 28.7985 86.1998 28.9075 85.9949 29.1257C85.7762 29.3439 85.6805 29.603 85.6805 29.903C85.6669 30.2029 85.7762 30.462 85.9949 30.6802Z" fill="white"/>
<path d="M90.1767 28.553C90.491 28.553 90.7233 28.6484 90.9147 28.8393C91.106 29.0302 91.188 29.2757 91.188 29.5893V31.1983H90.9283V29.5893C90.9283 29.3439 90.86 29.153 90.7233 29.0166C90.5867 28.8802 90.3954 28.7984 90.163 28.7984C89.8897 28.7984 89.6847 28.8802 89.5071 29.0575C89.3431 29.2348 89.2474 29.4938 89.2474 29.8211V31.1847H88.9878V28.5939H89.2474V29.0848C89.4388 28.7302 89.7531 28.553 90.1767 28.553Z" fill="white"/>
<path d="M93.7978 28.6074H94.0848L92.9642 31.43C92.8686 31.6891 92.7182 31.8936 92.5406 32.03C92.3629 32.18 92.1579 32.2482 91.9393 32.2209V31.9891C92.1033 32.0027 92.2536 31.9618 92.3903 31.8527C92.5269 31.7437 92.6362 31.5937 92.7182 31.3891L92.7729 31.2528L91.584 28.6211H91.871L92.9232 30.9255L93.7978 28.6074Z" fill="white"/>
<path d="M96.094 28.8538H95.3151V30.531C95.3151 30.681 95.3424 30.7901 95.397 30.8583C95.4517 30.9265 95.5337 30.9674 95.6567 30.9674C95.766 30.981 95.9163 30.9674 96.094 30.9537V31.1855C95.7387 31.2401 95.479 31.2128 95.3151 31.1174C95.1374 31.0219 95.0554 30.8174 95.0554 30.531V28.8538H94.4814V28.5947H95.0554V27.9402L95.3151 27.8584V28.5811H96.094V28.8538Z" fill="white"/>
<path d="M97.8977 28.5533C98.212 28.5533 98.4443 28.6487 98.6356 28.8396C98.8269 29.0305 98.9089 29.276 98.9089 29.5896V31.1986H98.6493V29.5896C98.6493 29.3441 98.581 29.1532 98.4443 29.0169C98.3076 28.8805 98.13 28.7987 97.884 28.7987C97.6107 28.7987 97.4057 28.8805 97.228 29.0578C97.064 29.2351 96.9684 29.4941 96.9684 29.8214V31.185H96.7087V27.5579H96.9684V29.0851C97.1597 28.7305 97.4604 28.5533 97.8977 28.5533Z" fill="white"/>
<path d="M99.9886 27.9124C99.9476 27.9533 99.8929 27.967 99.8383 27.967C99.7836 27.967 99.729 27.9533 99.688 27.9124C99.647 27.8715 99.6196 27.817 99.6196 27.7624C99.6196 27.7079 99.647 27.6533 99.688 27.6261C99.729 27.5852 99.7836 27.5715 99.8383 27.5715C99.8929 27.5715 99.9476 27.5852 99.9886 27.6261C100.03 27.667 100.057 27.7079 100.057 27.7624C100.057 27.8306 100.03 27.8715 99.9886 27.9124ZM99.7153 31.1987V28.6079H99.9749V31.1987H99.7153Z" fill="white"/>
<path d="M102.025 28.553C102.339 28.553 102.571 28.6484 102.763 28.8393C102.954 29.0302 103.036 29.2757 103.036 29.5893V31.1983H102.776V29.5893C102.776 29.3439 102.708 29.153 102.571 29.0166C102.435 28.8802 102.244 28.7984 102.011 28.7984C101.738 28.7984 101.533 28.8802 101.355 29.0575C101.191 29.2348 101.096 29.4938 101.096 29.8211V31.1847H100.836V28.5939H101.096V29.0848C101.287 28.7302 101.601 28.553 102.025 28.553Z" fill="white"/>
<path d="M106.165 28.6075H106.425V31.0756C106.425 31.4574 106.302 31.7438 106.056 31.9619C105.81 32.1801 105.496 32.2892 105.127 32.2892C104.826 32.2892 104.58 32.2346 104.362 32.1256C104.157 32.0165 103.993 31.8665 103.897 31.6756L104.129 31.5392C104.293 31.8801 104.621 32.0437 105.127 32.0437C105.455 32.0437 105.701 31.9619 105.878 31.7847C106.056 31.6074 106.152 31.3756 106.152 31.0756V30.5983C106.042 30.8029 105.892 30.9665 105.701 31.0756C105.509 31.1983 105.291 31.2529 105.045 31.2529C104.676 31.2529 104.348 31.1165 104.088 30.8574C103.829 30.5983 103.692 30.2711 103.692 29.9029C103.692 29.5211 103.829 29.2075 104.088 28.9484C104.348 28.6893 104.662 28.553 105.045 28.553C105.291 28.553 105.509 28.6075 105.701 28.7302C105.892 28.853 106.042 29.003 106.152 29.2075V28.6075H106.165ZM104.28 30.6802C104.498 30.8983 104.758 31.0074 105.058 31.0074C105.359 31.0074 105.632 30.8983 105.837 30.6802C106.056 30.462 106.152 30.2029 106.152 29.9029C106.152 29.5893 106.042 29.3302 105.837 29.1257C105.619 28.9075 105.359 28.7984 105.058 28.7984C104.758 28.7984 104.485 28.9075 104.28 29.1257C104.061 29.3439 103.965 29.6029 103.965 29.9029C103.965 30.2029 104.061 30.462 104.28 30.6802Z" fill="white"/>
<path d="M110.033 28.553C110.416 28.553 110.716 28.6893 110.962 28.9621C111.195 29.2348 111.318 29.5484 111.318 29.9166C111.318 29.9302 111.318 29.9575 111.318 29.9847C111.318 30.012 111.318 30.0393 111.318 30.0529H108.967C108.995 30.3393 109.117 30.5711 109.322 30.7483C109.527 30.9256 109.773 31.0211 110.074 31.0211C110.279 31.0211 110.457 30.9801 110.621 30.8847C110.771 30.8029 110.894 30.6802 110.976 30.5438L111.208 30.6802C111.099 30.8574 110.949 31.0074 110.757 31.1029C110.566 31.212 110.334 31.2665 110.088 31.2665C109.691 31.2665 109.363 31.1438 109.104 30.8847C108.844 30.6256 108.721 30.312 108.721 29.9166C108.721 29.5348 108.844 29.2075 109.104 28.9484C109.322 28.6757 109.637 28.553 110.033 28.553ZM110.033 28.7984C109.732 28.7984 109.486 28.8939 109.295 29.0711C109.104 29.2484 108.981 29.4938 108.954 29.7802H111.044C111.017 29.4666 110.908 29.2348 110.716 29.0575C110.525 28.8802 110.293 28.7984 110.033 28.7984Z" fill="white"/>
<path d="M112.001 31.1983V27.4211H112.261V31.1983H112.001Z" fill="white"/>
<path d="M113.285 29.2757C113.285 29.3984 113.34 29.5075 113.449 29.5757C113.559 29.6439 113.682 29.6984 113.846 29.7393C113.996 29.7802 114.16 29.8211 114.31 29.8621C114.461 29.903 114.597 29.9848 114.707 30.0939C114.816 30.2029 114.871 30.3393 114.871 30.5166C114.871 30.7347 114.789 30.912 114.611 31.0484C114.433 31.1847 114.215 31.2529 113.941 31.2529C113.695 31.2529 113.477 31.1984 113.313 31.0893C113.135 30.9802 113.026 30.8438 112.958 30.6666L113.176 30.5302C113.231 30.6666 113.313 30.7893 113.449 30.8711C113.586 30.9529 113.75 30.9938 113.941 30.9938C114.133 30.9938 114.297 30.9529 114.42 30.8711C114.543 30.7893 114.611 30.6666 114.611 30.5166C114.611 30.3938 114.556 30.2848 114.447 30.2166C114.338 30.1348 114.215 30.0802 114.051 30.053C113.9 30.012 113.736 29.9711 113.586 29.9302C113.436 29.8893 113.299 29.8075 113.19 29.7121C113.081 29.603 113.026 29.4666 113.026 29.303C113.026 29.0984 113.108 28.9212 113.272 28.7848C113.436 28.6485 113.654 28.5667 113.914 28.5667C114.119 28.5667 114.297 28.6076 114.461 28.703C114.611 28.7985 114.734 28.9212 114.802 29.0848L114.584 29.2075C114.529 29.0848 114.447 28.9757 114.324 28.9212C114.201 28.853 114.064 28.8257 113.914 28.8257C113.736 28.8257 113.586 28.8666 113.477 28.9621C113.34 29.0166 113.285 29.1394 113.285 29.2757Z" fill="white"/>
<path d="M116.716 28.553C117.098 28.553 117.399 28.6893 117.645 28.9621C117.877 29.2348 118 29.5484 118 29.9166C118 29.9302 118 29.9575 118 29.9847C118 30.012 118 30.0393 118 30.0529H115.636C115.663 30.3393 115.786 30.5711 115.991 30.7483C116.196 30.9256 116.442 31.0211 116.743 31.0211C116.948 31.0211 117.126 30.9801 117.29 30.8847C117.44 30.8029 117.563 30.6802 117.645 30.5438L117.877 30.6802C117.768 30.8574 117.618 31.0074 117.426 31.1029C117.235 31.212 117.003 31.2665 116.757 31.2665C116.36 31.2665 116.032 31.1438 115.773 30.8847C115.513 30.6256 115.39 30.312 115.39 29.9166C115.39 29.5348 115.513 29.2075 115.773 28.9484C115.991 28.6757 116.319 28.553 116.716 28.553ZM116.716 28.7984C116.415 28.7984 116.169 28.8939 115.978 29.0711C115.786 29.2484 115.663 29.4938 115.636 29.7802H117.727C117.7 29.4666 117.59 29.2348 117.399 29.0575C117.208 28.8802 116.975 28.7984 116.716 28.7984Z" fill="white"/>
</svg>
