<svg width="155" height="40" viewBox="0 0 155 40" fill="none" xmlns="http://www.w3.org/2000/svg">
<path fill-rule="evenodd" clip-rule="evenodd" d="M31.4437 15.6589V6.60775C31.4437 4.6709 29.8613 3.10078 27.9094 3.10078C25.9574 3.10078 24.375 4.6709 24.375 6.60775V15.6589H31.4437ZM27.9094 0C24.2315 0 21.25 2.95839 21.25 6.60775V18.1395C21.25 18.482 21.5298 18.7597 21.875 18.7597H33.9437C34.2889 18.7597 34.5687 18.482 34.5687 18.1395V6.60775C34.5687 2.95839 31.5872 0 27.9094 0Z" fill="white"/>
<path fill-rule="evenodd" clip-rule="evenodd" d="M15.7812 8.48993H6.65937C4.70739 8.48993 3.125 10.0601 3.125 11.9969C3.125 13.9338 4.70739 15.5039 6.65937 15.5039H15.7812V8.48993ZM0 11.9969C-8.25566e-08 15.6463 2.9815 18.6047 6.65937 18.6047H18.2812C18.6264 18.6047 18.9062 18.327 18.9062 17.9845V6.00932C18.9062 5.66681 18.6264 5.38916 18.2812 5.38916H6.65937C2.9815 5.38916 8.25565e-08 8.34755 0 11.9969Z" fill="white"/>
<path fill-rule="evenodd" clip-rule="evenodd" d="M8.55627 24.3411V33.3923C8.55627 35.3291 10.1387 36.8992 12.0906 36.8992C14.0426 36.8992 15.625 35.3291 15.625 33.3923V24.3411H8.55627ZM12.0906 40C15.7685 40 18.75 37.0416 18.75 33.3923V21.8605C18.75 21.518 18.4702 21.2403 18.125 21.2403H6.05627C5.71109 21.2403 5.43127 21.518 5.43127 21.8605V33.3923C5.43127 37.0416 8.41277 40 12.0906 40Z" fill="white"/>
<path fill-rule="evenodd" clip-rule="evenodd" d="M24.2188 31.5101H33.3406C35.2926 31.5101 36.875 29.9399 36.875 28.0031C36.875 26.0662 35.2926 24.4961 33.3406 24.4961H24.2188V31.5101ZM40 28.0031C40 24.3537 37.0185 21.3953 33.3406 21.3953H21.7188C21.3736 21.3953 21.0938 21.673 21.0938 22.0155V33.9907C21.0938 34.3332 21.3736 34.6108 21.7188 34.6108H33.3406C37.0185 34.6108 40 31.6524 40 28.0031Z" fill="white"/>
<path d="M52.5381 12.5203C50.2413 12.3153 49.0929 13.2791 49.0929 15.4119V15.699H52.5381V18.7341H49.0724V30.3208H45.9142V18.7546H43.6994V15.7195H45.9142V15.4324C45.9142 13.4227 46.4679 11.9051 47.5958 10.8592C48.7237 9.81337 50.3643 9.3622 52.5176 9.50576V12.5203H52.5381Z" fill="white"/>
<path d="M64.0223 15.7195H67.1804V30.3413H64.0223V28.4751C63.0584 29.9721 61.5614 30.7309 59.4901 30.7309C57.8085 30.7309 56.455 30.1977 55.4297 29.1313C54.4043 28.0649 53.8711 26.5884 53.8711 24.7222V15.7195H57.0292V24.3736C57.0292 25.4605 57.3163 26.3013 57.9111 26.896C58.5058 27.4907 59.2851 27.7778 60.3104 27.7778C61.4178 27.7778 62.3202 27.4292 62.9969 26.732C63.6736 26.0347 64.0223 24.9888 64.0223 23.5533V15.7195Z" fill="white"/>
<path d="M78.0904 15.3299C79.772 15.3299 81.1255 15.8631 82.1508 16.9294C83.1762 17.9958 83.7094 19.4724 83.7094 21.3385V30.3208H80.5513V21.6872C80.5513 20.6003 80.2642 19.7595 79.6694 19.1647C79.0747 18.57 78.2954 18.2829 77.2701 18.2829C76.1627 18.2829 75.2603 18.6316 74.5836 19.3288C73.9069 20.0261 73.5582 21.0719 73.5582 22.5075V30.3413H70.4001V15.7195H73.5582V17.5857C74.5016 16.0886 76.0191 15.3299 78.0904 15.3299Z" fill="white"/>
<path d="M98.2902 9.8749H101.448V30.3413H98.2902V28.229C97.1007 29.8901 95.3986 30.7104 93.1838 30.7104C91.1741 30.7104 89.4515 29.9722 88.0365 28.4751C86.6214 26.9781 85.9037 25.1734 85.9037 23.0202C85.9037 20.8464 86.6214 19.0417 88.0365 17.5447C89.4515 16.0681 91.1741 15.3299 93.1838 15.3299C95.3986 15.3299 97.1213 16.1502 98.2902 17.7908V9.8749ZM90.3743 26.3629C91.2561 27.2447 92.343 27.6959 93.676 27.6959C95.009 27.6959 96.0959 27.2447 96.9777 26.3629C97.8595 25.4811 98.2902 24.3531 98.2902 23.0202C98.2902 21.6667 97.8595 20.5593 96.9777 19.6775C96.0959 18.7956 95.009 18.3445 93.676 18.3445C92.343 18.3445 91.2561 18.7956 90.3743 19.6775C89.4925 20.5593 89.0618 21.6872 89.0618 23.0202C89.0413 24.3736 89.4925 25.4811 90.3743 26.3629Z" fill="white"/>
<path d="M113.302 15.3094C115.229 15.3094 116.87 16.0476 118.244 17.5447C119.618 19.0417 120.295 20.8669 120.295 23.0202C120.295 25.1734 119.618 27.0191 118.244 28.4956C116.87 29.9927 115.229 30.7309 113.302 30.7309C111.435 30.7309 109.979 30.1362 108.954 28.9468V30.3208H104.565V9.8749H108.954V17.0935C109.979 15.9041 111.435 15.3094 113.302 15.3094ZM109.938 25.6246C110.595 26.2603 111.415 26.5884 112.44 26.5884C113.445 26.5884 114.286 26.2603 114.942 25.6246C115.598 24.9889 115.927 24.1071 115.927 23.0202C115.927 21.9333 115.598 21.0514 114.942 20.4157C114.286 19.78 113.466 19.4519 112.44 19.4519C111.435 19.4519 110.595 19.78 109.938 20.4157C109.282 21.0514 108.954 21.9333 108.954 23.0202C108.954 24.1071 109.282 24.9889 109.938 25.6246Z" fill="white"/>
<path d="M133.03 15.7195H137.418V30.3413H133.03V28.9673C132.004 30.1567 130.548 30.7514 128.682 30.7514C126.754 30.7514 125.114 30.0132 123.74 28.5161C122.366 27.0191 121.689 25.1939 121.689 23.0406C121.689 20.8669 122.366 19.0417 123.74 17.5652C125.114 16.0681 126.754 15.3299 128.682 15.3299C130.548 15.3299 132.004 15.9246 133.03 17.114V15.7195ZM127.021 25.6246C127.657 26.2603 128.498 26.5884 129.543 26.5884C130.569 26.5884 131.41 26.2603 132.066 25.6246C132.722 24.9889 133.03 24.107 133.03 23.0201C133.03 21.9332 132.702 21.0514 132.066 20.4157C131.43 19.78 130.589 19.4518 129.543 19.4518C128.518 19.4518 127.677 19.78 127.021 20.4157C126.385 21.0514 126.057 21.9332 126.057 23.0201C126.057 24.107 126.385 24.9889 127.021 25.6246Z" fill="white"/>
<path d="M144.186 24.7838C144.698 26.1578 145.867 26.8345 147.693 26.8345C148.882 26.8345 149.825 26.4654 150.502 25.7271L154.009 27.7369C152.573 29.7466 150.441 30.7515 147.631 30.7515C145.17 30.7515 143.201 30.0132 141.745 28.5572C140.269 27.1011 139.531 25.2555 139.531 23.0407C139.531 20.8464 140.248 19.0007 141.704 17.5242C143.16 16.0476 145.027 15.3094 147.303 15.3094C149.436 15.3094 151.199 16.0476 152.614 17.5242C154.029 19.0007 154.727 20.8259 154.727 23.0407C154.727 23.6559 154.665 24.2506 154.542 24.8043H144.186V24.7838ZM144.104 21.5026H150.4C149.969 19.9646 148.943 19.1853 147.303 19.1853C145.58 19.1853 144.534 19.9646 144.104 21.5026Z" fill="white"/>
</svg>
