<svg width="448" height="323" viewBox="0 0 448 323" fill="none" xmlns="http://www.w3.org/2000/svg">
<g clip-path="url(#clip0)">
<path opacity="0.1" d="M224 323C347.712 323 448 310.761 448 295.663C448 280.566 347.712 268.327 224 268.327C100.288 268.327 0 280.566 0 295.663C0 310.761 100.288 323 224 323Z" fill="white"/>
<path d="M383.279 309.063C383.279 309.063 394.962 294.137 394.017 279.328C393.581 273.119 395.163 266.936 398.525 261.706C400.141 259.236 401.978 256.92 404.014 254.787" stroke="#535461" stroke-width="2" stroke-miterlimit="10"/>
<path d="M403.475 245.45C402.651 247.523 404 255.032 404 255.032C404 255.032 410.127 250.518 410.951 248.445C411.345 247.45 411.33 246.338 410.909 245.354C410.488 244.37 409.694 243.594 408.703 243.197C407.712 242.8 406.605 242.815 405.624 243.237C404.644 243.66 403.871 244.456 403.475 245.45Z" fill="#6C63FF"/>
<path d="M392.733 254.457C393.163 256.646 398.361 262.213 398.361 262.213C398.361 262.213 401.06 255.081 400.63 252.891C400.527 252.371 400.324 251.876 400.031 251.434C399.738 250.992 399.361 250.613 398.922 250.317C398.483 250.022 397.99 249.816 397.472 249.712C396.954 249.608 396.42 249.607 395.902 249.71C395.383 249.813 394.89 250.017 394.45 250.311C394.01 250.605 393.632 250.984 393.338 251.425C393.044 251.865 392.839 252.36 392.735 252.88C392.631 253.401 392.63 253.936 392.733 254.457Z" fill="#6C63FF"/>
<path d="M385.206 274.186C386.678 275.858 393.963 278.029 393.963 278.029C393.963 278.029 392.708 270.504 391.235 268.832C390.885 268.434 390.46 268.11 389.985 267.877C389.51 267.644 388.994 267.507 388.467 267.475C387.939 267.442 387.41 267.514 386.91 267.687C386.411 267.86 385.949 268.13 385.553 268.481C385.157 268.833 384.834 269.259 384.603 269.736C384.371 270.213 384.235 270.731 384.203 271.261C384.17 271.791 384.242 272.322 384.414 272.824C384.586 273.326 384.855 273.788 385.206 274.186Z" fill="#6C63FF"/>
<path d="M382.858 290.401C384.028 292.299 390.843 295.674 390.843 295.674C390.843 295.674 390.872 288.045 389.702 286.147C389.424 285.696 389.06 285.304 388.631 284.993C388.202 284.683 387.717 284.461 387.202 284.339C386.687 284.217 386.154 284.199 385.632 284.284C385.11 284.369 384.61 284.557 384.161 284.837C383.711 285.116 383.321 285.482 383.012 285.912C382.703 286.343 382.482 286.831 382.361 287.348C382.24 287.865 382.222 288.4 382.307 288.924C382.392 289.448 382.58 289.95 382.858 290.401Z" fill="#6C63FF"/>
<path d="M406.05 265.759C403.995 266.61 396.502 265.343 396.502 265.343C396.502 265.343 400.926 259.139 402.98 258.288C403.967 257.879 405.075 257.881 406.061 258.292C407.046 258.704 407.829 259.492 408.236 260.482C408.643 261.473 408.641 262.586 408.231 263.575C407.821 264.565 407.037 265.35 406.05 265.759Z" fill="#6C63FF"/>
<path d="M403.065 284.687C400.851 284.882 394.078 281.422 394.078 281.422C394.078 281.422 400.148 276.831 402.363 276.636C402.889 276.59 403.42 276.647 403.925 276.807C404.429 276.966 404.898 277.223 405.303 277.564C405.708 277.905 406.043 278.323 406.287 278.794C406.531 279.265 406.681 279.78 406.727 280.309C406.773 280.838 406.715 281.371 406.556 281.877C406.397 282.384 406.14 282.853 405.8 283.26C405.46 283.667 405.043 284.002 404.574 284.247C404.105 284.492 403.592 284.642 403.065 284.687Z" fill="#6C63FF"/>
<path d="M397.65 302.685C395.5 303.253 388.243 300.991 388.243 300.991C388.243 300.991 393.452 295.437 395.602 294.869C396.634 294.597 397.732 294.747 398.654 295.287C399.576 295.827 400.247 296.713 400.518 297.749C400.79 298.786 400.64 299.888 400.102 300.814C399.564 301.739 398.682 302.413 397.65 302.685Z" fill="#6C63FF"/>
<path opacity="0.25" d="M403.475 245.45C402.651 247.523 404 255.032 404 255.032C404 255.032 410.127 250.518 410.951 248.445C411.345 247.45 411.33 246.338 410.909 245.354C410.488 244.37 409.694 243.594 408.703 243.197C407.712 242.8 406.605 242.815 405.624 243.237C404.644 243.66 403.871 244.456 403.475 245.45Z" fill="black"/>
<path opacity="0.25" d="M392.733 254.457C393.163 256.646 398.361 262.213 398.361 262.213C398.361 262.213 401.06 255.081 400.63 252.891C400.527 252.371 400.324 251.876 400.031 251.434C399.738 250.992 399.361 250.613 398.922 250.317C398.483 250.022 397.99 249.816 397.472 249.712C396.954 249.608 396.42 249.607 395.902 249.71C395.383 249.813 394.89 250.017 394.45 250.311C394.01 250.605 393.632 250.984 393.338 251.425C393.044 251.865 392.839 252.36 392.735 252.88C392.631 253.401 392.63 253.936 392.733 254.457Z" fill="black"/>
<path opacity="0.25" d="M385.206 274.186C386.678 275.858 393.963 278.029 393.963 278.029C393.963 278.029 392.708 270.504 391.235 268.832C390.885 268.434 390.46 268.11 389.985 267.877C389.51 267.644 388.994 267.507 388.467 267.475C387.939 267.442 387.41 267.514 386.91 267.687C386.411 267.86 385.949 268.13 385.553 268.481C385.157 268.833 384.834 269.259 384.603 269.736C384.371 270.213 384.235 270.731 384.203 271.261C384.17 271.791 384.242 272.322 384.414 272.824C384.586 273.326 384.855 273.788 385.206 274.186Z" fill="black"/>
<path opacity="0.25" d="M382.858 290.401C384.028 292.299 390.843 295.674 390.843 295.674C390.843 295.674 390.872 288.045 389.702 286.147C389.424 285.696 389.06 285.304 388.631 284.993C388.202 284.683 387.717 284.461 387.202 284.339C386.687 284.217 386.154 284.199 385.632 284.284C385.11 284.369 384.61 284.557 384.161 284.837C383.711 285.116 383.321 285.482 383.012 285.912C382.703 286.343 382.482 286.831 382.361 287.348C382.24 287.865 382.222 288.4 382.307 288.924C382.392 289.448 382.58 289.95 382.858 290.401Z" fill="black"/>
<path opacity="0.25" d="M406.05 265.759C403.995 266.61 396.502 265.343 396.502 265.343C396.502 265.343 400.926 259.139 402.98 258.288C403.967 257.879 405.075 257.881 406.061 258.292C407.046 258.704 407.829 259.492 408.236 260.482C408.643 261.473 408.641 262.586 408.231 263.575C407.821 264.565 407.037 265.35 406.05 265.759Z" fill="black"/>
<path opacity="0.25" d="M403.065 284.687C400.851 284.882 394.078 281.422 394.078 281.422C394.078 281.422 400.148 276.831 402.363 276.636C402.889 276.59 403.42 276.647 403.925 276.807C404.429 276.966 404.898 277.223 405.303 277.564C405.708 277.905 406.043 278.323 406.287 278.794C406.531 279.265 406.681 279.78 406.727 280.309C406.773 280.838 406.715 281.371 406.556 281.877C406.397 282.384 406.14 282.853 405.8 283.26C405.46 283.667 405.043 284.002 404.574 284.247C404.105 284.492 403.592 284.642 403.065 284.687Z" fill="black"/>
<path opacity="0.25" d="M397.65 302.685C395.5 303.253 388.243 300.991 388.243 300.991C388.243 300.991 393.452 295.437 395.602 294.869C396.634 294.597 397.732 294.747 398.654 295.287C399.576 295.827 400.247 296.713 400.518 297.749C400.79 298.786 400.64 299.888 400.102 300.814C399.564 301.739 398.682 302.413 397.65 302.685Z" fill="black"/>
<path d="M383.378 308.442C383.378 308.442 400.082 299.549 405.196 285.626C407.303 279.773 411.245 274.763 416.429 271.351C418.903 269.75 421.518 268.38 424.24 267.258" stroke="#535461" stroke-width="2" stroke-miterlimit="10"/>
<path d="M427.515 258.503C425.925 260.062 424.128 267.476 424.128 267.476C424.128 267.476 431.551 265.842 433.141 264.282C433.904 263.533 434.34 262.51 434.352 261.439C434.364 260.367 433.952 259.335 433.206 258.568C432.46 257.802 431.441 257.364 430.374 257.352C429.307 257.34 428.278 257.753 427.515 258.503Z" fill="#6C63FF"/>
<path d="M414.059 262.366C413.569 264.543 416.074 271.747 416.074 271.747C416.074 271.747 421.421 266.325 421.911 264.148C422.027 263.63 422.041 263.095 421.951 262.572C421.862 262.049 421.67 261.549 421.388 261.1C421.106 260.651 420.739 260.263 420.307 259.957C419.875 259.65 419.388 259.433 418.872 259.316C418.357 259.199 417.823 259.185 417.302 259.275C416.782 259.365 416.283 259.557 415.837 259.84C415.39 260.124 415.003 260.492 414.698 260.926C414.393 261.359 414.176 261.849 414.059 262.366Z" fill="#6C63FF"/>
<path d="M399.215 277.34C399.887 279.468 405.671 284.416 405.671 284.416C405.671 284.416 407.56 277.026 406.889 274.899C406.729 274.393 406.472 273.924 406.131 273.518C405.791 273.112 405.374 272.777 404.905 272.532C404.436 272.288 403.923 272.139 403.397 272.093C402.87 272.048 402.34 272.107 401.836 272.267C401.332 272.428 400.865 272.686 400.46 273.028C400.056 273.37 399.723 273.788 399.479 274.259C399.236 274.73 399.087 275.245 399.042 275.773C398.997 276.302 399.056 276.834 399.215 277.34Z" fill="#6C63FF"/>
<path d="M390.525 291.209C390.829 293.42 395.697 299.279 395.697 299.279C395.697 299.279 398.803 292.316 398.499 290.105C398.427 289.579 398.252 289.073 397.985 288.615C397.718 288.157 397.364 287.757 396.942 287.436C396.521 287.116 396.041 286.882 395.53 286.748C395.018 286.613 394.486 286.582 393.962 286.654C393.438 286.727 392.934 286.902 392.478 287.17C392.022 287.438 391.623 287.794 391.304 288.217C390.985 288.64 390.752 289.122 390.618 289.635C390.484 290.149 390.453 290.684 390.525 291.209Z" fill="#6C63FF"/>
<path d="M421.673 278.117C419.451 278.059 413.112 273.851 413.112 273.851C413.112 273.851 419.66 269.98 421.882 270.038C422.949 270.066 423.961 270.518 424.696 271.295C425.431 272.072 425.828 273.111 425.801 274.182C425.773 275.253 425.322 276.27 424.548 277.008C423.774 277.746 422.74 278.145 421.673 278.117H421.673Z" fill="#6C63FF"/>
<path d="M411.305 294.207C409.202 293.484 404.407 287.565 404.407 287.565C404.407 287.565 411.809 285.838 413.912 286.561C414.921 286.908 415.753 287.644 416.222 288.606C416.692 289.569 416.761 290.679 416.416 291.693C416.07 292.707 415.337 293.541 414.379 294.013C413.42 294.484 412.314 294.554 411.305 294.207V294.207Z" fill="#6C63FF"/>
<path d="M399.09 308.458C396.895 308.102 391.173 303.082 391.173 303.082C391.173 303.082 398.178 300.124 400.372 300.479C401.426 300.65 402.369 301.234 402.994 302.103C403.619 302.972 403.874 304.054 403.704 305.112C403.534 306.171 402.953 307.117 402.087 307.745C401.222 308.372 400.144 308.629 399.09 308.458Z" fill="#6C63FF"/>
<path opacity="0.1" d="M255.311 38.2528C233.177 37.4812 212.096 30.3067 191.965 22.4573C171.835 14.608 151.895 5.91152 130.29 1.75227C116.395 -0.922883 100.504 -1.30138 89.308 6.17881C78.5338 13.377 75.0525 25.8026 73.1807 37.3319C71.7725 46.0062 70.9446 55.1356 74.8031 63.2562C77.482 68.8941 82.2386 73.6332 85.5278 79.0333C96.9732 97.8239 88.8835 120.995 76.4801 139.342C70.6618 147.949 63.9133 156.159 59.4236 165.321C54.9339 174.482 52.857 184.98 56.785 194.326C60.6784 203.589 69.9569 210.547 80.0076 215.441C100.421 225.381 124.476 228.226 147.933 229.837C199.857 233.403 252.059 231.859 304.121 230.313C323.388 229.74 342.74 229.16 361.694 226.169C372.219 224.508 383.086 221.871 390.728 215.507C400.428 207.427 402.833 193.745 396.333 183.614C385.429 166.619 355.283 162.398 347.662 144.161C343.467 134.122 347.775 122.94 353.871 113.629C366.949 93.6568 388.868 76.1348 390.023 53.3057C390.816 37.6264 380.279 21.9239 363.986 14.5054C346.908 6.72932 323.226 7.70748 310.627 20.5795C297.654 33.8341 274.855 38.934 255.311 38.2528Z" fill="#2C3C90"/>
<path d="M217.413 283.402C225.725 283.402 232.463 276.221 232.463 267.363C232.463 258.505 225.725 251.324 217.413 251.324C209.102 251.324 202.364 258.505 202.364 267.363C202.364 276.221 209.102 283.402 217.413 283.402Z" fill="#FBD56F"/>
<path opacity="0.1" d="M217.413 283.402C225.725 283.402 232.463 276.221 232.463 267.363C232.463 258.505 225.725 251.324 217.413 251.324C209.102 251.324 202.364 258.505 202.364 267.363C202.364 276.221 209.102 283.402 217.413 283.402Z" fill="black"/>
<path d="M220.011 283.402C228.322 283.402 235.06 276.381 235.06 267.72C235.06 259.06 228.322 252.039 220.011 252.039C211.699 252.039 204.961 259.06 204.961 267.72C204.961 276.381 211.699 283.402 220.011 283.402Z" fill="#FBD56F"/>
<path d="M226.106 281.932L224.541 281.057C224.541 281.057 223.809 284.125 224.048 286.311C224.072 286.533 224.162 286.742 224.308 286.91C224.454 287.078 224.648 287.197 224.863 287.252C228.464 288.15 245.629 291.975 257.431 286.587C257.603 286.508 257.75 286.387 257.86 286.233C257.97 286.08 258.039 285.901 258.059 285.713C258.204 284.369 257.691 281.597 257.486 281.057C257.046 279.894 226.106 281.932 226.106 281.932Z" fill="#FBD56F"/>
<path opacity="0.1" d="M226.106 281.932L224.541 281.057C224.541 281.057 223.809 284.125 224.048 286.311C224.072 286.533 224.162 286.742 224.308 286.91C224.454 287.078 224.648 287.197 224.863 287.252C228.464 288.15 245.629 291.975 257.431 286.587C257.603 286.508 257.75 286.387 257.86 286.233C257.97 286.08 258.039 285.901 258.059 285.713C258.204 284.369 257.691 281.597 257.486 281.057C257.046 279.894 226.106 281.932 226.106 281.932Z" fill="black"/>
<path d="M241.014 284.784C250.111 284.784 257.486 283.115 257.486 281.056C257.486 278.997 250.111 277.328 241.014 277.328C231.916 277.328 224.541 278.997 224.541 281.056C224.541 283.115 231.916 284.784 241.014 284.784Z" fill="#FBD56F"/>
<path d="M232.4 276.431L230.834 275.556C230.834 275.556 230.102 278.624 230.342 280.81C230.365 281.032 230.456 281.241 230.602 281.409C230.748 281.578 230.941 281.697 231.157 281.751C234.758 282.649 251.922 286.475 263.725 281.086C263.896 281.008 264.044 280.886 264.154 280.733C264.264 280.58 264.332 280.4 264.352 280.213C264.497 278.869 263.985 276.096 263.78 275.556C263.34 274.394 232.4 276.431 232.4 276.431Z" fill="#FBD56F"/>
<path opacity="0.1" d="M232.4 276.431L230.834 275.556C230.834 275.556 230.102 278.624 230.342 280.81C230.365 281.032 230.456 281.241 230.602 281.409C230.748 281.578 230.941 281.697 231.157 281.751C234.758 282.649 251.922 286.475 263.725 281.086C263.896 281.008 264.044 280.886 264.154 280.733C264.264 280.58 264.332 280.4 264.352 280.213C264.497 278.869 263.985 276.096 263.78 275.556C263.34 274.394 232.4 276.431 232.4 276.431Z" fill="black"/>
<path d="M247.307 279.284C256.405 279.284 263.78 277.615 263.78 275.556C263.78 273.497 256.405 271.828 247.307 271.828C238.21 271.828 230.834 273.497 230.834 275.556C230.834 277.615 238.21 279.284 247.307 279.284Z" fill="#FBD56F"/>
<path d="M237.964 269.202L236.398 268.327C236.398 268.327 235.666 271.395 235.905 273.581C235.929 273.803 236.02 274.012 236.166 274.18C236.311 274.348 236.505 274.467 236.721 274.522C240.322 275.42 257.486 279.245 269.289 273.857C269.46 273.778 269.608 273.657 269.718 273.503C269.828 273.35 269.896 273.171 269.916 272.983C270.061 271.639 269.548 268.867 269.344 268.327C268.903 267.164 237.964 269.202 237.964 269.202Z" fill="#FBD56F"/>
<path opacity="0.1" d="M237.964 269.202L236.398 268.327C236.398 268.327 235.666 271.395 235.905 273.581C235.929 273.803 236.02 274.012 236.166 274.18C236.311 274.348 236.505 274.467 236.721 274.522C240.322 275.42 257.486 279.245 269.289 273.857C269.46 273.778 269.608 273.657 269.718 273.503C269.828 273.35 269.896 273.171 269.916 272.983C270.061 271.639 269.548 268.867 269.344 268.327C268.903 267.164 237.964 269.202 237.964 269.202Z" fill="black"/>
<path d="M252.871 272.054C261.969 272.054 269.344 270.385 269.344 268.326C269.344 266.267 261.969 264.598 252.871 264.598C243.773 264.598 236.398 266.267 236.398 268.326C236.398 270.385 243.773 272.054 252.871 272.054Z" fill="#FBD56F"/>
<path d="M231.802 261.676L230.237 260.801C230.237 260.801 229.505 263.869 229.744 266.055C229.767 266.277 229.858 266.486 230.004 266.654C230.15 266.822 230.344 266.942 230.559 266.996C234.16 267.894 251.324 271.719 263.127 266.331C263.298 266.253 263.446 266.131 263.556 265.977C263.666 265.824 263.735 265.645 263.755 265.457C263.899 264.113 263.387 261.341 263.182 260.801C262.742 259.638 231.802 261.676 231.802 261.676Z" fill="#FBD56F"/>
<path opacity="0.1" d="M231.802 261.676L230.237 260.801C230.237 260.801 229.505 263.869 229.744 266.055C229.767 266.277 229.858 266.486 230.004 266.654C230.15 266.822 230.344 266.942 230.559 266.996C234.16 267.894 251.324 271.719 263.127 266.331C263.298 266.253 263.446 266.131 263.556 265.977C263.666 265.824 263.735 265.645 263.755 265.457C263.899 264.113 263.387 261.341 263.182 260.801C262.742 259.638 231.802 261.676 231.802 261.676Z" fill="black"/>
<path d="M246.709 264.529C255.807 264.529 263.182 262.86 263.182 260.801C263.182 258.742 255.807 257.073 246.709 257.073C237.612 257.073 230.237 258.742 230.237 260.801C230.237 262.86 237.612 264.529 246.709 264.529Z" fill="#FBD56F"/>
<path d="M245.663 255.636L244.098 254.761C244.098 254.761 243.366 257.829 243.605 260.015C243.629 260.237 243.719 260.446 243.865 260.614C244.011 260.783 244.205 260.902 244.42 260.956C248.021 261.854 265.185 265.68 276.988 260.291C277.16 260.213 277.307 260.091 277.417 259.938C277.527 259.785 277.596 259.605 277.616 259.418C277.761 258.074 277.248 255.301 277.043 254.761C276.603 253.599 245.663 255.636 245.663 255.636Z" fill="#FBD56F"/>
<path opacity="0.1" d="M245.663 255.636L244.098 254.761C244.098 254.761 243.366 257.829 243.605 260.015C243.629 260.237 243.719 260.446 243.865 260.614C244.011 260.783 244.205 260.902 244.42 260.956C248.021 261.854 265.185 265.68 276.988 260.291C277.16 260.213 277.307 260.091 277.417 259.938C277.527 259.785 277.596 259.605 277.616 259.418C277.761 258.074 277.248 255.301 277.043 254.761C276.603 253.599 245.663 255.636 245.663 255.636Z" fill="black"/>
<path d="M260.571 258.49C269.668 258.49 277.043 256.82 277.043 254.761C277.043 252.702 269.668 251.033 260.571 251.033C251.473 251.033 244.098 252.702 244.098 254.761C244.098 256.82 251.473 258.49 260.571 258.49Z" fill="#FBD56F"/>
<path d="M236.298 251.577L234.733 250.702C234.733 250.702 234 253.77 234.24 255.956C234.263 256.178 234.354 256.387 234.5 256.555C234.646 256.724 234.84 256.843 235.055 256.897C238.656 257.795 255.82 261.621 267.623 256.232C267.794 256.154 267.942 256.032 268.052 255.879C268.162 255.726 268.231 255.546 268.251 255.358C268.395 254.015 267.883 251.242 267.678 250.702C267.238 249.54 236.298 251.577 236.298 251.577Z" fill="#FBD56F"/>
<path opacity="0.1" d="M236.298 251.577L234.733 250.702C234.733 250.702 234 253.77 234.24 255.956C234.263 256.178 234.354 256.387 234.5 256.555C234.646 256.724 234.84 256.843 235.055 256.897C238.656 257.795 255.82 261.621 267.623 256.232C267.794 256.154 267.942 256.032 268.052 255.879C268.162 255.726 268.231 255.546 268.251 255.358C268.395 254.015 267.883 251.242 267.678 250.702C267.238 249.54 236.298 251.577 236.298 251.577Z" fill="black"/>
<path d="M251.205 254.43C260.303 254.43 267.678 252.761 267.678 250.702C267.678 248.643 260.303 246.974 251.205 246.974C242.108 246.974 234.733 248.643 234.733 250.702C234.733 252.761 242.108 254.43 251.205 254.43Z" fill="#FBD56F"/>
<path d="M242.551 243.74L240.985 242.865C240.985 242.865 240.253 245.933 240.492 248.119C240.516 248.341 240.607 248.55 240.753 248.719C240.898 248.887 241.092 249.006 241.308 249.06C244.909 249.958 262.073 253.784 273.876 248.395C274.047 248.317 274.195 248.195 274.305 248.042C274.415 247.889 274.483 247.709 274.503 247.522C274.648 246.178 274.135 243.405 273.931 242.865C273.491 241.703 242.551 243.74 242.551 243.74Z" fill="#FBD56F"/>
<path opacity="0.1" d="M242.551 243.74L240.985 242.865C240.985 242.865 240.253 245.933 240.492 248.119C240.516 248.341 240.607 248.55 240.753 248.719C240.898 248.887 241.092 249.006 241.308 249.06C244.909 249.958 262.073 253.784 273.876 248.395C274.047 248.317 274.195 248.195 274.305 248.042C274.415 247.889 274.483 247.709 274.503 247.522C274.648 246.178 274.135 243.405 273.931 242.865C273.491 241.703 242.551 243.74 242.551 243.74Z" fill="black"/>
<path d="M257.458 246.594C266.556 246.594 273.931 244.924 273.931 242.865C273.931 240.806 266.556 239.137 257.458 239.137C248.36 239.137 240.985 240.806 240.985 242.865C240.985 244.924 248.36 246.594 257.458 246.594Z" fill="#FBD56F"/>
<path d="M245.635 234.439L244.07 233.563C244.07 233.563 243.337 236.631 243.577 238.818C243.6 239.039 243.691 239.248 243.837 239.417C243.983 239.585 244.176 239.704 244.392 239.758C247.993 240.656 265.157 244.482 276.96 239.094C277.131 239.015 277.279 238.893 277.389 238.74C277.499 238.587 277.567 238.408 277.587 238.22C277.732 236.876 277.22 234.104 277.015 233.563C276.575 232.401 245.635 234.439 245.635 234.439Z" fill="#FBD56F"/>
<path opacity="0.1" d="M245.635 234.439L244.07 233.563C244.07 233.563 243.337 236.631 243.577 238.818C243.6 239.039 243.691 239.248 243.837 239.417C243.983 239.585 244.176 239.704 244.392 239.758C247.993 240.656 265.157 244.482 276.96 239.094C277.131 239.015 277.279 238.893 277.389 238.74C277.499 238.587 277.567 238.408 277.587 238.22C277.732 236.876 277.22 234.104 277.015 233.563C276.575 232.401 245.635 234.439 245.635 234.439Z" fill="black"/>
<path d="M260.542 237.291C269.64 237.291 277.015 235.622 277.015 233.563C277.015 231.504 269.64 229.835 260.542 229.835C251.445 229.835 244.07 231.504 244.07 233.563C244.07 235.622 251.445 237.291 260.542 237.291Z" fill="#FBD56F"/>
<path d="M273.443 284.089L271.877 283.214C271.877 283.214 271.145 286.282 271.384 288.468C271.408 288.69 271.499 288.899 271.644 289.067C271.79 289.235 271.984 289.355 272.199 289.409C275.801 290.307 292.965 294.132 304.768 288.744C304.939 288.666 305.087 288.544 305.197 288.391C305.307 288.237 305.375 288.058 305.395 287.87C305.54 286.527 305.027 283.754 304.823 283.214C304.382 282.051 273.443 284.089 273.443 284.089Z" fill="#FBD56F"/>
<path opacity="0.1" d="M273.443 284.089L271.877 283.214C271.877 283.214 271.145 286.282 271.384 288.468C271.408 288.69 271.499 288.899 271.644 289.067C271.79 289.235 271.984 289.355 272.199 289.409C275.801 290.307 292.965 294.132 304.768 288.744C304.939 288.666 305.087 288.544 305.197 288.391C305.307 288.237 305.375 288.058 305.395 287.87C305.54 286.527 305.027 283.754 304.823 283.214C304.382 282.051 273.443 284.089 273.443 284.089Z" fill="black"/>
<path d="M288.35 286.942C297.447 286.942 304.823 285.273 304.823 283.214C304.823 281.155 297.447 279.486 288.35 279.486C279.252 279.486 271.877 281.155 271.877 283.214C271.877 285.273 279.252 286.942 288.35 286.942Z" fill="#FBD56F"/>
<path d="M279.006 276.86L277.441 275.984C277.441 275.984 276.709 279.052 276.948 281.239C276.972 281.46 277.062 281.669 277.208 281.838C277.354 282.006 277.548 282.125 277.763 282.179C281.364 283.077 298.528 286.903 310.331 281.515C310.503 281.436 310.65 281.314 310.76 281.161C310.87 281.008 310.939 280.829 310.959 280.641C311.104 279.297 310.591 276.525 310.386 275.984C309.946 274.822 279.006 276.86 279.006 276.86Z" fill="#FBD56F"/>
<path opacity="0.1" d="M279.006 276.86L277.441 275.984C277.441 275.984 276.709 279.052 276.948 281.239C276.972 281.46 277.062 281.669 277.208 281.838C277.354 282.006 277.548 282.125 277.763 282.179C281.364 283.077 298.528 286.903 310.331 281.515C310.503 281.436 310.65 281.314 310.76 281.161C310.87 281.008 310.939 280.829 310.959 280.641C311.104 279.297 310.591 276.525 310.386 275.984C309.946 274.822 279.006 276.86 279.006 276.86Z" fill="black"/>
<path d="M293.914 279.713C303.011 279.713 310.386 278.044 310.386 275.985C310.386 273.926 303.011 272.256 293.914 272.256C284.816 272.256 277.441 273.926 277.441 275.985C277.441 278.044 284.816 279.713 293.914 279.713Z" fill="#FBD56F"/>
<path d="M272.845 269.334L271.279 268.458C271.279 268.458 270.547 271.526 270.787 273.713C270.81 273.934 270.901 274.144 271.047 274.312C271.192 274.48 271.386 274.599 271.602 274.653C275.203 275.551 292.367 279.377 304.17 273.989C304.341 273.91 304.489 273.788 304.599 273.635C304.709 273.482 304.777 273.303 304.797 273.115C304.942 271.771 304.429 268.999 304.225 268.458C303.785 267.296 272.845 269.334 272.845 269.334Z" fill="#FBD56F"/>
<path opacity="0.1" d="M272.845 269.334L271.279 268.458C271.279 268.458 270.547 271.526 270.787 273.713C270.81 273.934 270.901 274.144 271.047 274.312C271.192 274.48 271.386 274.599 271.602 274.653C275.203 275.551 292.367 279.377 304.17 273.989C304.341 273.91 304.489 273.788 304.599 273.635C304.709 273.482 304.777 273.303 304.797 273.115C304.942 271.771 304.429 268.999 304.225 268.458C303.785 267.296 272.845 269.334 272.845 269.334Z" fill="black"/>
<path d="M287.752 272.187C296.85 272.187 304.225 270.518 304.225 268.459C304.225 266.4 296.85 264.73 287.752 264.73C278.654 264.73 271.279 266.4 271.279 268.459C271.279 270.518 278.654 272.187 287.752 272.187Z" fill="#FBD56F"/>
<path d="M286.706 263.294L285.141 262.419C285.141 262.419 284.408 265.487 284.648 267.673C284.671 267.895 284.762 268.104 284.908 268.272C285.054 268.441 285.247 268.56 285.463 268.614C289.064 269.512 306.228 273.338 318.031 267.949C318.202 267.871 318.35 267.749 318.46 267.596C318.57 267.442 318.638 267.263 318.658 267.075C318.803 265.732 318.291 262.959 318.086 262.419C317.646 261.256 286.706 263.294 286.706 263.294Z" fill="#FBD56F"/>
<path opacity="0.1" d="M286.706 263.294L285.141 262.419C285.141 262.419 284.408 265.487 284.648 267.673C284.671 267.895 284.762 268.104 284.908 268.272C285.054 268.441 285.247 268.56 285.463 268.614C289.064 269.512 306.228 273.338 318.031 267.949C318.202 267.871 318.35 267.749 318.46 267.596C318.57 267.442 318.638 267.263 318.658 267.075C318.803 265.732 318.291 262.959 318.086 262.419C317.646 261.256 286.706 263.294 286.706 263.294Z" fill="black"/>
<path d="M301.613 266.147C310.711 266.147 318.086 264.478 318.086 262.419C318.086 260.36 310.711 258.691 301.613 258.691C292.516 258.691 285.141 260.36 285.141 262.419C285.141 264.478 292.516 266.147 301.613 266.147Z" fill="#FBD56F"/>
<path d="M277.341 259.235L275.775 258.36C275.775 258.36 275.043 261.428 275.282 263.614C275.306 263.836 275.397 264.045 275.543 264.213C275.688 264.381 275.882 264.501 276.098 264.555C279.699 265.453 296.863 269.278 308.666 263.89C308.837 263.812 308.985 263.69 309.095 263.537C309.205 263.383 309.273 263.204 309.293 263.016C309.438 261.673 308.925 258.9 308.721 258.36C308.281 257.197 277.341 259.235 277.341 259.235Z" fill="#FBD56F"/>
<path opacity="0.1" d="M277.341 259.235L275.775 258.36C275.775 258.36 275.043 261.428 275.282 263.614C275.306 263.836 275.397 264.045 275.543 264.213C275.688 264.381 275.882 264.501 276.098 264.555C279.699 265.453 296.863 269.278 308.666 263.89C308.837 263.812 308.985 263.69 309.095 263.537C309.205 263.383 309.273 263.204 309.293 263.016C309.438 261.673 308.925 258.9 308.721 258.36C308.281 257.197 277.341 259.235 277.341 259.235Z" fill="black"/>
<path d="M292.248 262.088C301.346 262.088 308.721 260.419 308.721 258.36C308.721 256.301 301.346 254.632 292.248 254.632C283.15 254.632 275.775 256.301 275.775 258.36C275.775 260.419 283.15 262.088 292.248 262.088Z" fill="#FBD56F"/>
<path d="M283.593 251.399L282.028 250.523C282.028 250.523 281.296 253.591 281.535 255.778C281.559 255.999 281.649 256.208 281.795 256.377C281.941 256.545 282.135 256.664 282.35 256.718C285.951 257.616 303.115 261.442 314.918 256.054C315.09 255.975 315.237 255.853 315.347 255.7C315.457 255.547 315.526 255.368 315.546 255.18C315.691 253.836 315.178 251.064 314.973 250.523C314.533 249.361 283.593 251.399 283.593 251.399Z" fill="#FBD56F"/>
<path opacity="0.1" d="M283.593 251.399L282.028 250.523C282.028 250.523 281.296 253.591 281.535 255.778C281.559 255.999 281.649 256.208 281.795 256.377C281.941 256.545 282.135 256.664 282.35 256.718C285.951 257.616 303.115 261.442 314.918 256.054C315.09 255.975 315.237 255.853 315.347 255.7C315.457 255.547 315.526 255.368 315.546 255.18C315.691 253.836 315.178 251.064 314.973 250.523C314.533 249.361 283.593 251.399 283.593 251.399Z" fill="black"/>
<path d="M298.501 254.251C307.598 254.251 314.973 252.582 314.973 250.523C314.973 248.464 307.598 246.795 298.501 246.795C289.403 246.795 282.028 248.464 282.028 250.523C282.028 252.582 289.403 254.251 298.501 254.251Z" fill="#FBD56F"/>
<path d="M286.678 242.096L285.112 241.221C285.112 241.221 284.38 244.289 284.619 246.475C284.643 246.697 284.734 246.906 284.879 247.075C285.025 247.243 285.219 247.362 285.434 247.416C289.036 248.314 306.2 252.14 318.003 246.751C318.174 246.673 318.322 246.551 318.432 246.398C318.542 246.245 318.61 246.065 318.63 245.878C318.775 244.534 318.262 241.761 318.058 241.221C317.617 240.059 286.678 242.096 286.678 242.096Z" fill="#FBD56F"/>
<path opacity="0.1" d="M286.678 242.096L285.112 241.221C285.112 241.221 284.38 244.289 284.619 246.475C284.643 246.697 284.734 246.906 284.879 247.075C285.025 247.243 285.219 247.362 285.434 247.416C289.036 248.314 306.2 252.14 318.003 246.751C318.174 246.673 318.322 246.551 318.432 246.398C318.542 246.245 318.61 246.065 318.63 245.878C318.775 244.534 318.262 241.761 318.058 241.221C317.617 240.059 286.678 242.096 286.678 242.096Z" fill="black"/>
<path d="M301.585 244.949C310.683 244.949 318.058 243.28 318.058 241.221C318.058 239.162 310.683 237.493 301.585 237.493C292.487 237.493 285.112 239.162 285.112 241.221C285.112 243.28 292.487 244.949 301.585 244.949Z" fill="#FBD56F"/>
<path d="M385.966 306.032C383.673 305.95 383.591 305.058 380.643 303.516C378.979 302.647 376.451 300.12 374.568 298.087C374.417 297.924 374.271 297.765 374.13 297.61C374.628 297.599 374.91 297.593 374.91 297.593C374.91 297.593 374.173 291.103 374.828 289.561C375.483 288.02 374.992 278.851 374.992 278.851C374.992 278.851 375.402 271.874 374.665 270.251C373.928 268.628 374.91 258.243 374.91 258.243C374.91 258.243 375.565 252.077 375.729 239.501C375.893 226.925 368.523 226.52 368.523 226.52C368.523 226.52 367.54 226.443 366.048 226.3C365.905 226.287 365.753 226.272 365.601 226.257C366.567 224.226 367.131 222.706 367.131 222.706C367.131 222.706 365.902 210.942 365.575 208.913C365.247 206.885 363.282 198.528 363.282 198.528C363.282 198.528 361.889 194.958 361.071 192.443C360.252 189.928 357.795 187.007 357.795 187.007C357.795 187.007 353.373 178.244 352.144 176.946C351.574 176.344 350.775 175.585 350.082 174.944C349.957 174.828 349.838 174.718 349.722 174.612C349.907 173.698 350.006 172.768 350.015 171.835C350.015 171.835 345.429 167.291 345.102 166.155C344.774 165.019 340.434 160.8 340.434 160.8C340.434 160.8 337.977 156.257 335.193 156.176C333.877 156.101 332.558 156.141 331.249 156.296C331.821 154.171 332.497 151.944 333.105 150.034C333.172 149.821 333.239 149.613 333.304 149.409C335.529 147.898 337.275 145.778 338.335 143.3C338.393 143.168 338.446 143.035 338.498 142.902C338.528 142.902 338.557 142.907 338.586 142.907C338.702 142.905 338.817 142.895 338.931 142.875C339.848 142.717 340.623 141.678 340.201 140.858C340.228 140.904 340.267 140.942 340.314 140.968C340.361 140.994 340.414 141.007 340.468 141.005C340.773 140.995 341.146 140.551 341.218 140.161C341.23 140.093 341.237 140.025 341.247 139.957C341.26 139.872 341.274 139.787 341.284 139.702C341.294 139.622 341.3 139.542 341.306 139.462C341.313 139.379 341.32 139.296 341.324 139.213C341.328 139.136 341.33 139.058 341.331 138.98C341.333 138.891 341.333 138.802 341.331 138.712C341.33 138.641 341.329 138.569 341.325 138.498C341.32 138.389 341.311 138.281 341.301 138.172C341.297 138.128 341.296 138.083 341.292 138.038L341.291 138.045C341.243 137.602 341.154 137.164 341.027 136.736C340.574 135.228 339.625 133.733 339.991 132.202C339.995 132.185 340.002 132.17 340.006 132.154L340.007 132.157C340.312 130.969 341.335 130.105 341.962 129.044C342.022 128.943 342.074 128.838 342.126 128.733C342.135 128.714 342.147 128.696 342.156 128.677C342.194 128.598 342.226 128.517 342.259 128.436C342.28 128.384 342.304 128.333 342.323 128.281C342.35 128.21 342.371 128.138 342.394 128.066C342.415 128.001 342.438 127.936 342.456 127.87C342.474 127.806 342.488 127.742 342.503 127.677C342.521 127.6 342.539 127.523 342.554 127.444C342.565 127.388 342.573 127.332 342.582 127.275C342.596 127.187 342.608 127.098 342.618 127.009C342.623 126.96 342.626 126.912 342.63 126.864C342.638 126.764 342.644 126.664 342.646 126.564C342.647 126.524 342.647 126.484 342.648 126.444C342.648 126.335 342.645 126.225 342.639 126.116C342.637 126.083 342.636 126.05 342.633 126.018C342.625 125.901 342.613 125.785 342.598 125.669C342.596 125.652 342.595 125.635 342.593 125.618L342.592 125.623C342.453 124.604 342.048 123.639 341.419 122.827C340.702 121.97 339.796 121.292 338.773 120.848C337.75 120.404 336.637 120.205 335.524 120.267C334.909 120.337 334.288 120.348 333.671 120.301C332.643 120.15 331.773 119.494 330.954 118.86C328.668 117.092 326.381 115.324 324.095 113.555C323.33 112.888 322.451 112.364 321.502 112.008C320.533 111.71 319.37 111.813 318.653 112.524C317.369 113.796 318.185 115.986 317.669 117.712C317.223 119.206 315.785 120.219 314.297 120.724C312.809 121.229 311.216 121.339 309.687 121.705C309.232 121.779 308.805 121.975 308.453 122.274C308.057 122.757 307.865 123.376 307.917 123.999C307.908 125.527 308.273 127.034 308.982 128.386C309.271 128.937 309.621 129.494 309.929 130.059C309.954 130.105 309.979 130.152 310.004 130.199C310.038 130.263 310.073 130.328 310.105 130.393C310.159 130.499 310.209 130.605 310.258 130.711C310.278 130.756 310.297 130.802 310.317 130.848C310.349 130.924 310.38 130.999 310.408 131.074C310.427 131.122 310.445 131.17 310.461 131.218C310.492 131.307 310.52 131.396 310.545 131.486C310.709 132.01 310.724 132.57 310.59 133.103C310.354 133.975 309.676 134.647 309.078 135.329C308.59 135.861 308.242 136.508 308.067 137.209L308.064 137.225C308.031 137.388 308.025 137.556 308.046 137.721C308.049 137.742 308.051 137.762 308.055 137.782C308.063 137.819 308.073 137.855 308.085 137.891C308.095 137.916 308.106 137.942 308.118 137.966C308.13 137.995 308.144 138.023 308.16 138.05C308.19 138.096 308.225 138.137 308.264 138.174C308.283 138.189 308.302 138.203 308.322 138.216C308.355 138.241 308.39 138.263 308.427 138.281C308.449 138.292 308.472 138.303 308.497 138.312C308.551 138.333 308.607 138.348 308.665 138.358C308.681 138.361 308.694 138.366 308.711 138.369C308.798 138.38 308.887 138.384 308.975 138.38C309 138.379 309.028 138.376 309.054 138.374C309.138 138.368 309.222 138.357 309.306 138.342C309.336 138.337 309.366 138.332 309.398 138.325C309.519 138.3 309.645 138.269 309.785 138.226C310.244 138.086 310.692 137.909 311.122 137.695C311.122 137.744 311.119 137.793 311.119 137.843C311.119 137.928 311.119 138.017 311.127 138.102C311.15 139.693 311.449 141.268 312.011 142.756C312.889 145.075 314.363 147.119 316.282 148.68C316.258 148.821 316.232 148.961 316.204 149.103C315.809 151.048 314.984 153 314.474 152.849C313.976 152.738 313.467 152.682 312.956 152.682C312.801 152.678 312.652 152.675 312.509 152.675L312.509 152.674C312.046 152.62 311.579 152.62 311.117 152.674C310.91 152.688 310.703 152.66 310.507 152.59C309.184 152.171 307.778 152.092 306.416 152.359C303.584 152.942 299.277 154.008 298.096 155.283C296.294 157.231 293.674 159.097 290.726 167.21C290.726 167.21 289.252 172.159 288.105 172.808C288.358 172.677 288.618 172.56 288.883 172.457C288.731 172.725 288.521 172.956 288.269 173.133C288.684 172.92 289.116 172.739 289.559 172.593C288.664 177.879 289.989 193 289.989 193C289.989 193 288.924 195.607 290.316 197.149C291.144 198.065 291.593 199.494 291.823 200.505C291.759 200.606 291.691 200.711 291.622 200.819V200.821C290.885 201.968 289.899 203.464 289.252 204.289C288.105 205.749 288.433 210.374 288.433 210.374C288.433 210.374 288.187 212.564 287.368 213.376C286.549 214.187 286.713 217.189 286.713 217.189L284.584 225.059C284.584 225.059 282.618 226.844 282.618 227.655C282.618 228.467 281.062 230.739 281.062 230.739C281.062 230.739 278.688 234.633 281.062 234.065C281.928 233.811 282.741 233.4 283.46 232.855L283.459 232.913C283.456 233.056 283.453 233.201 283.45 233.348C283.383 237.59 283.844 243.558 286.959 243.558C291.79 243.558 304.238 249.318 304.238 249.318C306.776 251.266 310.216 250.617 310.216 250.617C310.216 250.617 304.156 256.702 304.32 259.217C304.483 261.732 300.88 265.87 300.88 265.87L289.743 287.695C289.805 289.216 290.074 290.721 290.541 292.169C290.488 292.215 290.433 292.259 290.382 292.307C286.102 296.232 285.73 304.003 285.73 304.003L284.748 307.979L299.652 314.551C299.652 314.551 318.978 314.956 322.336 314.064C325.693 313.171 324.956 309.439 320.534 308.709C316.112 307.979 315.048 306.031 313.573 305.139C312.579 304.537 309.048 300.646 306.857 298.179C306.823 298.142 306.793 298.107 306.76 298.07L307.268 295.241C308.251 294.754 309.725 289.886 309.725 289.886C309.725 289.886 309.725 287.938 310.707 287.37C311.69 286.803 313.737 280.961 313.737 280.961C313.737 280.961 318.159 273.578 317.914 272.604C317.668 271.63 321.108 266.681 321.108 266.681C321.108 266.681 326.922 261.002 326.676 259.988C326.43 258.973 331.344 253.781 331.344 253.781C333.119 252.42 334.599 250.709 335.692 248.754C336.135 248.682 336.61 248.606 337.111 248.522C343.541 247.464 354.226 245.55 355.42 245.018C357.058 244.288 356.73 247.533 356.075 250.292C355.42 253.051 354.929 266.275 355.666 267.979C356.403 269.683 356.075 272.442 356.075 272.442L355.093 287.289L355.748 290.454C355.748 290.454 353.537 292.239 354.437 293.293C355.338 294.348 354.519 298.892 354.519 298.892C354.597 298.863 354.688 298.835 354.791 298.807C354.712 298.985 354.637 299.168 354.57 299.361C353.301 302.994 354.028 308.952 354.028 308.952V313.658C354.028 313.658 376.712 314.064 381.707 314.064C386.703 314.064 393.582 311.63 393.991 309.683C394.4 307.735 388.259 306.113 385.966 306.032ZM321.448 221.567L319.962 221.692C320.454 221.62 320.95 221.578 321.448 221.567ZM330.507 159.29C330.715 158.352 330.968 157.342 331.246 156.307L330.507 159.29ZM333.309 223.842C331.892 224.405 330.315 224.407 328.897 223.847L328.887 223.842C328.887 223.842 328.969 218.163 329.624 215.81C330.279 213.457 331.18 209.157 331.18 209.157C331.18 209.157 331.917 203.234 332.654 200.556C333.391 197.879 336.257 182.95 337.731 181.977C339.206 181.003 340.024 182.707 340.024 182.707C340.024 182.707 340.245 182.702 340.614 182.661C340.683 182.817 340.761 182.982 340.848 183.158C342.596 186.704 347.722 193.985 347.722 193.985C349.243 194.926 350.531 196.203 351.489 197.717C352.881 200.07 353.291 205.587 353.291 205.587C353.291 205.587 356.403 217.838 357.877 219.542C358.614 220.394 358.286 220.902 357.775 221.195C356.731 221.769 355.843 222.593 355.191 223.592C354.981 223.926 354.759 224.293 354.534 224.685C353.97 224.554 353.466 224.418 353.045 224.275C349.033 222.922 335.52 222.868 333.309 223.842Z" fill="url(#paint0_linear)"/>
<path d="M353.491 309V313.666C353.491 313.666 375.687 314.068 380.575 314.068C385.463 314.068 392.195 311.655 392.595 309.724C392.996 307.793 386.986 306.184 384.742 306.103C382.499 306.023 382.418 305.138 379.534 303.609C377.905 302.747 375.432 300.241 373.589 298.225C372.168 296.669 371.12 295.403 371.12 295.403C371.12 295.403 359.18 295.161 355.734 297.092C354.941 297.538 354.393 298.41 354.021 299.488C352.779 303.091 353.491 309 353.491 309Z" fill="#0D0D26"/>
<path opacity="0.1" d="M354.021 299.488C356.524 298.614 371.181 298.275 373.589 298.225C372.168 296.669 371.12 295.403 371.12 295.403C371.12 295.403 359.18 295.161 355.734 297.092C354.941 297.538 354.393 298.41 354.021 299.488Z" fill="black"/>
<path d="M289.625 225.084C289.625 225.084 290.088 225.366 290.92 225.87C291.071 225.96 291.233 226.06 291.406 226.164C291.933 226.484 292.566 226.866 293.289 227.303C303.36 233.397 330.832 249.916 332.336 249.784C332.73 249.75 333.914 249.572 335.549 249.305C335.982 249.234 336.446 249.158 336.937 249.075C343.229 248.026 353.685 246.128 354.853 245.601C356.456 244.876 356.135 248.095 355.494 250.83C354.853 253.566 354.372 266.68 355.093 268.37C355.814 270.059 355.494 272.795 355.494 272.795L354.532 287.518L355.173 290.656C355.173 290.656 353.01 292.426 353.891 293.472C354.773 294.518 353.971 299.023 353.971 299.023C356.536 298.058 373.924 297.736 373.924 297.736C373.924 297.736 373.203 291.299 373.844 289.771C374.485 288.242 374.004 279.151 374.004 279.151C374.004 279.151 374.405 272.231 373.684 270.622C372.963 269.013 373.924 258.715 373.924 258.715C373.924 258.715 374.565 252.6 374.726 240.13C374.886 227.659 367.674 227.257 367.674 227.257C367.674 227.257 366.712 227.181 365.252 227.04C362.397 226.764 357.637 226.238 354.457 225.545C353.805 225.409 353.162 225.238 352.529 225.031C348.603 223.689 335.381 223.636 333.217 224.602C331.832 225.16 330.286 225.162 328.9 224.607L328.89 224.602L327.207 221.866L311.134 223.242L309.431 223.388L293.608 224.743L292.52 224.837L289.625 225.084Z" fill="#171F4A"/>
<path opacity="0.1" d="M354.052 237.427C358.72 239.712 363.175 231.611 365.252 227.04C362.397 226.765 357.637 226.238 354.457 225.545C352.366 229.069 349.575 235.237 354.052 237.427Z" fill="black"/>
<path d="M340.028 182.684C340.126 183.238 340.317 183.77 340.594 184.258C342.304 187.774 347.32 194.994 347.32 194.994C348.812 195.932 350.073 197.197 351.006 198.695C352.369 201.028 352.769 206.499 352.769 206.499C352.769 206.499 355.814 218.648 357.257 220.338C357.978 221.182 357.657 221.686 357.157 221.977C356.133 222.549 355.264 223.365 354.628 224.354C352.527 227.746 349.173 234.474 353.891 236.783C360.302 239.921 366.312 223.475 366.312 223.475C366.312 223.475 365.11 211.809 364.789 209.798C364.469 207.787 362.546 199.5 362.546 199.5C362.546 199.5 361.183 195.96 360.382 193.465C359.581 190.971 357.177 188.075 357.177 188.075C357.177 188.075 352.85 179.386 351.648 178.098C351.09 177.502 350.308 176.748 349.63 176.113C348.846 175.377 348.202 174.8 348.202 174.8C348.202 174.8 339.948 180.754 340.028 182.684Z" fill="#67313A"/>
<path d="M285.699 308.034L300.283 314.551C300.283 314.551 319.194 314.954 322.479 314.069C325.765 313.183 325.044 309.483 320.717 308.758C316.389 308.034 315.348 306.103 313.905 305.218C312.932 304.621 309.477 300.763 307.333 298.317C306.301 297.139 305.572 296.288 305.572 296.288C305.572 296.288 302.767 288.805 294.994 290.495C293.576 290.803 292.268 291.494 291.212 292.494C287.024 296.386 286.66 304.092 286.66 304.092L285.699 308.034Z" fill="#0D0D26"/>
<path opacity="0.1" d="M291.406 226.164C291.933 226.484 292.566 226.866 293.289 227.303C303.36 233.397 330.832 249.916 332.336 249.784C332.73 249.751 333.914 249.572 335.549 249.305C335.982 249.234 336.446 249.158 336.937 249.075C336.956 249.044 336.974 249.014 336.991 248.983C337.798 247.568 338.415 246.052 338.826 244.474C340.509 238.038 332.175 233.13 332.175 233.13L330.413 231.754C328.409 228.367 313.985 225.165 313.985 225.165L312.126 223.911L311.134 223.242L310.873 223.067L308.617 221.544L297.318 222.349L293.962 224.515L293.608 224.743L292.362 225.548L291.406 226.164Z" fill="black"/>
<path opacity="0.1" d="M291.212 292.494C294.279 303.146 307.094 299.667 307.094 299.667L307.333 298.317C306.301 297.139 305.572 296.288 305.572 296.288C305.572 296.288 302.767 288.805 294.994 290.495C293.575 290.803 292.268 291.494 291.212 292.494Z" fill="black"/>
<path d="M287.862 244.152C292.59 244.152 304.77 249.865 304.77 249.865C307.254 251.796 310.62 251.152 310.62 251.152C310.62 251.152 304.69 257.186 304.85 259.68C305.011 262.174 301.485 266.278 301.485 266.278L290.587 287.92C291.388 303.287 307.094 299.023 307.094 299.023L307.735 295.403C308.697 294.92 310.139 290.093 310.139 290.093C310.139 290.093 310.139 288.162 311.101 287.598C312.062 287.035 314.066 281.242 314.066 281.242C314.066 281.242 318.393 273.921 318.152 272.955C317.912 271.99 321.277 267.082 321.277 267.082C321.277 267.082 326.967 261.45 326.726 260.445C326.486 259.439 331.294 254.29 331.294 254.29C333.035 252.936 334.483 251.24 335.549 249.305C336.356 247.89 336.973 246.374 337.384 244.796C338.74 239.613 333.599 235.42 331.546 233.986C331.049 233.638 330.733 233.452 330.733 233.452L328.97 232.076C328.06 230.534 324.579 229.033 321.055 227.854C318.513 227.002 315.947 226.319 314.308 225.908C313.223 225.638 312.543 225.487 312.543 225.487L310.684 224.233L310.03 223.792L309.431 223.388L307.174 221.866L302.147 222.223L295.876 222.671L292.52 224.837L290.92 225.87L284.657 229.912C284.657 229.912 284.492 231.46 284.439 233.537C284.436 233.698 284.433 233.861 284.429 234.028C284.364 238.234 284.814 244.152 287.862 244.152Z" fill="#171F4A"/>
<path d="M311.982 154.042L313.665 160.077C313.665 160.077 316.63 170.455 316.95 171.179C317.271 171.904 325.044 179.225 325.364 179.386C325.685 179.547 329.917 181.961 329.917 181.961C329.917 181.961 330.252 168.685 329.932 164.823C329.904 163.975 329.974 163.126 330.14 162.294C330.651 159.267 331.945 154.829 333.017 151.412C333.914 148.547 334.66 146.399 334.66 146.399C334.66 146.399 315.909 145.595 316.55 147.445C316.792 148.145 316.713 149.315 316.479 150.488C316.093 152.417 315.285 154.353 314.787 154.203C314.299 154.093 313.801 154.037 313.301 154.038C312.609 154.017 311.982 154.042 311.982 154.042Z" fill="#67313A"/>
<path opacity="0.1" d="M316.479 150.488C318.77 152.408 321.616 153.534 324.596 153.701C327.575 153.867 330.528 153.064 333.017 151.412C333.914 148.547 334.66 146.399 334.66 146.399C334.66 146.399 315.909 145.595 316.55 147.445C316.792 148.145 316.713 149.315 316.479 150.488Z" fill="black"/>
<path d="M339.229 139.322C339.23 140.798 338.996 142.265 338.536 143.667C338.42 144.029 338.286 144.385 338.135 144.733C337.055 147.3 335.233 149.483 332.905 150.999C330.576 152.514 327.848 153.294 325.074 153.236C322.299 153.178 319.606 152.285 317.342 150.673C315.079 149.061 313.349 146.804 312.377 144.194C311.826 142.717 311.534 141.156 311.511 139.58C311.503 139.495 311.503 139.406 311.503 139.322C311.503 135.631 312.964 132.09 315.564 129.48C318.163 126.87 321.689 125.403 325.366 125.403C329.043 125.403 332.569 126.87 335.168 129.48C337.768 132.09 339.229 135.631 339.229 139.322H339.229Z" fill="#67313A"/>
<path opacity="0.1" d="M311.982 154.042L313.665 160.076C313.665 160.076 316.63 170.455 316.95 171.179C317.271 171.903 325.044 179.225 325.364 179.386C325.685 179.547 329.917 181.96 329.917 181.96C329.917 181.96 330.252 168.685 329.932 164.823C329.904 163.975 329.974 163.126 330.14 162.294L329.05 166.754L329.13 175.685L329.771 176.168L328.329 178.34V176.731C328.329 176.731 323.201 171.743 322.399 169.651C321.598 167.559 318.713 163.771 318.713 163.771C318.713 163.771 315.428 158.226 315.348 157.261C315.285 156.507 313.905 154.766 313.301 154.037C312.609 154.017 311.982 154.042 311.982 154.042Z" fill="black"/>
<path opacity="0.1" d="M340.028 182.684C340.126 183.238 340.317 183.77 340.594 184.258C342.346 184.078 348.316 182.96 349.63 176.113C348.846 175.377 348.202 174.8 348.202 174.8C348.202 174.8 339.948 180.753 340.028 182.684Z" fill="black"/>
<path opacity="0.1" d="M284.429 234.028C286.046 232.879 287.585 231.312 288.503 230.877C289.866 230.234 291.949 228.142 291.949 228.142C291.949 228.142 292.478 227.781 293.289 227.303C294.776 226.428 297.214 225.16 299.081 225.004C300.754 224.864 306.312 224.507 310.684 224.233C313.848 224.034 316.389 223.878 316.389 223.878C316.389 223.878 321.598 222.027 323.842 223.234C325.449 224.042 327.142 224.663 328.89 225.084C328.89 225.084 328.892 224.909 328.9 224.607L328.89 224.602L327.207 221.866L309.431 223.388L307.174 221.866L295.875 222.671L292.52 224.837L289.625 225.084C289.625 225.084 290.088 225.366 290.92 225.87L284.657 229.912C284.657 229.912 284.465 231.709 284.429 234.028Z" fill="black"/>
<path d="M282.093 234.739C282.941 234.486 283.736 234.079 284.439 233.539V233.537C286.053 232.39 287.587 230.828 288.503 230.395C289.866 229.751 291.949 227.659 291.949 227.659C291.949 227.659 296.196 224.763 299.081 224.521C299.868 224.455 301.512 224.341 303.488 224.212C305.511 224.077 307.878 223.926 310.03 223.793C311.27 223.714 312.439 223.64 313.426 223.579C315.195 223.469 316.389 223.395 316.389 223.395C316.389 223.395 321.598 221.545 323.842 222.751C325.449 223.56 327.142 224.181 328.89 224.602C328.89 224.602 328.97 218.97 329.611 216.637C330.252 214.304 331.134 210.039 331.134 210.039C331.134 210.039 331.855 204.166 332.576 201.511C333.297 198.856 336.102 184.052 337.544 183.087C338.987 182.121 339.788 183.811 339.788 183.811C339.788 183.811 349.404 183.65 349.564 173.03C349.564 173.03 345.077 168.524 344.756 167.398C344.436 166.272 340.189 162.088 340.189 162.088C340.189 162.088 337.785 157.582 335.06 157.502C333.773 157.428 332.481 157.467 331.201 157.621L328.89 167.076L328.97 176.007L329.611 176.489L328.169 178.662V177.053C328.169 177.053 323.04 172.064 322.239 169.973C321.438 167.881 318.553 164.093 318.553 164.093C318.553 164.093 315.268 158.548 315.187 157.582C315.107 156.617 312.864 154.03 312.864 154.03C312.411 153.976 311.954 153.976 311.501 154.03C311.299 154.044 311.096 154.015 310.905 153.946C309.611 153.531 308.234 153.452 306.902 153.717C304.131 154.295 299.916 155.352 298.76 156.617C296.997 158.548 294.433 160.398 291.548 168.444L307.094 174.076L305.764 176.615L293.391 200.224C293.391 200.224 292.981 200.895 292.425 201.772V201.773C291.704 202.911 290.739 204.395 290.106 205.212C288.984 206.66 289.305 211.246 289.305 211.246C289.305 211.246 289.064 213.419 288.263 214.223C287.462 215.028 287.622 218.005 287.622 218.005L285.538 225.809C285.538 225.809 283.615 227.579 283.615 228.383C283.615 229.188 282.093 231.441 282.093 231.441C282.093 231.441 279.769 235.302 282.093 234.739Z" fill="#D8DCF3"/>
<path opacity="0.1" d="M364.148 240.532C364.148 240.532 359.1 242.222 357.738 244.636C356.375 247.049 364.148 240.532 364.148 240.532Z" fill="black"/>
<path opacity="0.1" d="M361.584 235.222C361.424 235.464 354.67 242.268 355.093 243.911C355.517 245.555 361.584 235.222 361.584 235.222Z" fill="black"/>
<path opacity="0.1" d="M324.483 240.049C324.483 240.049 316.95 243.616 316.309 245.172C315.668 246.727 324.483 240.049 324.483 240.049Z" fill="black"/>
<path opacity="0.1" d="M324.002 244.635C324.002 244.635 317.204 247.532 316.276 248.256C315.348 248.98 324.002 244.635 324.002 244.635Z" fill="black"/>
<path opacity="0.1" d="M320.877 250.83C320.877 250.83 317.866 253.083 316.206 251.313C314.546 249.543 320.877 250.83 320.877 250.83Z" fill="black"/>
<path opacity="0.1" d="M332.177 192.098C332.015 192.339 321.999 210.442 319.354 211.809C316.71 213.177 332.177 192.098 332.177 192.098Z" fill="black"/>
<path opacity="0.1" d="M331.695 198.937C331.695 199.339 321.918 220.338 320.316 220.579C318.713 220.82 331.695 198.937 331.695 198.937Z" fill="black"/>
<path opacity="0.1" d="M294.513 212.453C294.513 212.453 289.792 222.576 287.942 223.154C286.093 223.731 294.513 212.453 294.513 212.453Z" fill="black"/>
<path opacity="0.1" d="M293.712 207.948C293.712 207.948 292.084 211.488 291.095 211.488C290.106 211.488 293.712 207.948 293.712 207.948Z" fill="black"/>
<path opacity="0.1" d="M339.229 139.322C339.23 140.798 338.995 142.265 338.535 143.667C338.42 144.029 338.286 144.385 338.135 144.733C337.423 144.625 336.752 144.329 336.191 143.876C335.596 143.472 335.099 142.938 334.737 142.315C334.463 141.652 334.227 140.973 334.027 140.284C333.708 139.505 333.187 138.826 332.518 138.318C331.849 137.809 331.058 137.489 330.225 137.391C330.685 138.179 329.952 139.262 329.051 139.403C328.149 139.539 327.271 139 326.65 138.328C326.029 137.656 325.58 136.84 324.963 136.168C324.342 135.496 323.465 134.957 322.563 135.094C321.766 135.214 321.148 135.826 320.479 136.28C319.814 136.735 318.88 137.041 318.235 136.554C317.875 136.284 317.698 135.826 317.354 135.532C316.468 134.788 315.09 135.556 314.436 136.518C313.431 138.006 312.818 138.908 311.511 139.58C311.503 139.495 311.503 139.407 311.503 139.322C311.503 135.631 312.964 132.09 315.564 129.48C318.163 126.87 321.689 125.403 325.366 125.403C329.043 125.403 332.569 126.87 335.168 129.48C337.768 132.09 339.229 135.631 339.229 139.322Z" fill="black"/>
<path d="M314.438 136.115C315.09 135.153 316.467 134.384 317.355 135.132C317.7 135.422 317.876 135.881 318.235 136.153C318.879 136.64 319.814 136.335 320.48 135.878C321.147 135.422 321.765 134.813 322.563 134.692C323.464 134.554 324.343 135.093 324.963 135.766C325.582 136.438 326.031 137.254 326.65 137.926C327.27 138.599 328.149 139.138 329.051 138.999C329.952 138.861 330.687 137.777 330.224 136.989C331.057 137.087 331.848 137.407 332.517 137.916C333.185 138.424 333.706 139.103 334.026 139.881C334.225 140.571 334.462 141.249 334.736 141.913C335.099 142.536 335.596 143.069 336.192 143.472C336.927 144.014 337.818 144.47 338.717 144.313C339.615 144.156 340.375 143.123 339.958 142.309C340.245 142.746 340.861 142.137 340.954 141.621C341.157 140.49 341.094 139.327 340.769 138.225C340.326 136.73 339.397 135.247 339.755 133.729C340.039 132.527 341.062 131.664 341.683 130.597C342.784 128.707 342.491 126.161 341.153 124.432C340.456 123.585 339.572 122.914 338.57 122.473C337.568 122.032 336.477 121.833 335.385 121.894C334.783 121.963 334.175 121.974 333.571 121.928C332.565 121.778 331.714 121.127 330.913 120.499L324.2 115.238C323.454 114.578 322.594 114.058 321.663 113.704C320.715 113.408 319.578 113.51 318.876 114.215C317.619 115.477 318.418 117.649 317.913 119.36C317.476 120.842 316.07 121.846 314.613 122.347C313.157 122.847 311.599 122.957 310.102 123.32C309.656 123.393 309.238 123.589 308.895 123.884C308.507 124.365 308.319 124.978 308.37 125.594C308.361 127.108 308.718 128.601 309.412 129.945C310.19 131.446 311.422 132.989 310.986 134.623C310.755 135.488 310.091 136.154 309.506 136.829C308.238 138.294 307.81 140.458 310.196 139.702C312.495 138.974 313.14 138.03 314.438 136.115Z" fill="#171F4A"/>
<g opacity="0.1">
<path opacity="0.1" d="M340.956 140.035C340.862 140.55 340.246 141.16 339.959 140.722C340.376 141.536 339.616 142.57 338.718 142.727C337.82 142.883 336.929 142.427 336.193 141.886C335.598 141.482 335.1 140.949 334.737 140.326C334.463 139.663 334.226 138.985 334.027 138.295C333.707 137.516 333.186 136.838 332.518 136.329C331.85 135.821 331.058 135.501 330.225 135.402C330.689 136.191 329.954 137.274 329.052 137.413C328.15 137.551 327.271 137.012 326.652 136.34C326.032 135.668 325.583 134.852 324.964 134.179C324.345 133.507 323.466 132.967 322.564 133.105C321.767 133.227 321.148 133.836 320.482 134.292C319.816 134.748 318.881 135.054 318.237 134.567C317.877 134.295 317.702 133.836 317.357 133.545C316.469 132.797 315.091 133.567 314.439 134.529C313.142 136.444 312.497 137.388 310.198 138.116C309.443 138.355 308.971 138.301 308.717 138.07C308.212 139.234 308.442 140.258 310.198 139.702C312.497 138.974 313.142 138.03 314.439 136.115C315.091 135.153 316.469 134.384 317.357 135.132C317.702 135.422 317.877 135.881 318.237 136.153C318.881 136.64 319.816 136.334 320.482 135.878C321.148 135.422 321.767 134.813 322.564 134.691C323.466 134.554 324.345 135.093 324.964 135.766C325.583 136.438 326.032 137.254 326.652 137.926C327.271 138.599 328.15 139.138 329.052 138.999C329.954 138.861 330.689 137.777 330.225 136.988C331.058 137.087 331.85 137.407 332.518 137.916C333.186 138.424 333.707 139.103 334.027 139.881C334.226 140.571 334.463 141.249 334.737 141.913C335.1 142.535 335.598 143.068 336.193 143.472C336.929 144.013 337.82 144.47 338.718 144.313C339.616 144.156 340.376 143.122 339.959 142.309C340.246 142.746 340.862 142.137 340.956 141.621C341.08 140.927 341.104 140.218 341.028 139.516C341.009 139.69 340.987 139.863 340.956 140.035Z" fill="black"/>
<path opacity="0.1" d="M310.966 133.098C310.973 133.077 310.981 133.057 310.987 133.037C311.423 131.403 310.191 129.86 309.414 128.359C308.869 127.301 308.53 126.147 308.418 124.961C308.388 125.171 308.372 125.382 308.372 125.594C308.362 127.108 308.72 128.601 309.414 129.945C309.945 130.971 310.688 132.017 310.966 133.098Z" fill="black"/>
<path opacity="0.1" d="M341.684 129.011C341.063 130.078 340.04 130.941 339.756 132.143C339.647 132.651 339.652 133.178 339.771 133.684C340.069 132.506 341.071 131.65 341.684 130.597C342.262 129.566 342.48 128.37 342.301 127.201C342.214 127.839 342.004 128.453 341.684 129.011Z" fill="black"/>
</g>
<path opacity="0.1" d="M292.425 201.772V201.774C292.532 202.218 292.613 202.667 292.67 203.12C292.67 203.12 299.001 218.005 299.802 218.89C300.049 219.162 300.978 220.501 302.147 222.224C302.57 222.847 303.023 223.521 303.488 224.213C305.911 227.824 308.617 231.924 308.617 231.924L314.546 237.153C314.546 237.153 327.446 238.189 331.546 233.986C331.049 233.639 330.733 233.452 330.733 233.452L328.97 232.076C328.06 230.535 324.579 229.034 321.055 227.854C317.808 227.878 315.152 228.142 315.152 228.142L314.308 225.909L313.426 223.579L308.943 211.729C308.943 211.729 306.052 196.765 305.091 196.04C304.129 195.316 304.37 193.064 304.37 193.064C304.37 193.064 306.132 186.708 305.491 185.823C304.85 184.938 306.533 178.421 306.533 178.421C306.366 177.784 306.107 177.176 305.764 176.615L293.391 200.224C293.391 200.224 292.981 200.895 292.425 201.772Z" fill="black"/>
<path d="M306.693 177.938C306.693 177.938 305.011 184.455 305.652 185.34C306.293 186.225 304.53 192.581 304.53 192.581C304.53 192.581 304.289 194.833 305.251 195.558C306.213 196.282 309.104 211.246 309.104 211.246L315.312 227.659C315.312 227.659 334.74 225.728 332.736 231.843C330.733 237.958 314.707 236.67 314.707 236.67L308.777 231.441C308.777 231.441 300.764 219.292 299.962 218.407C299.161 217.522 292.83 202.638 292.83 202.638C292.83 202.638 292.51 199.661 291.148 198.132C289.785 196.603 290.827 194.018 290.827 194.018C290.827 194.018 289.144 174.559 290.907 172.225C292.67 169.892 304.85 170.938 306.693 177.938Z" fill="#67313A"/>
<path opacity="0.1" d="M296.757 165.708L291.709 168.766C291.709 168.766 290.266 173.673 289.144 174.317C289.144 174.317 299.241 168.685 306.854 181.639C306.854 181.639 306.613 179.949 307.655 179.144C308.697 178.34 308.456 174.88 308.456 174.88C308.733 174.334 308.974 173.769 309.177 173.191C309.899 171.421 306.132 161.283 296.757 165.708Z" fill="black"/>
<path d="M296.597 165.387L291.548 168.444C291.548 168.444 290.106 173.352 288.984 173.995C288.984 173.995 299.081 168.363 306.693 181.317C306.693 181.317 306.453 179.627 307.495 178.823C308.536 178.018 308.296 174.558 308.296 174.558C308.573 174.012 308.814 173.447 309.017 172.869C309.738 171.099 305.972 160.961 296.597 165.387Z" fill="#D8DCF3"/>
<path d="M251.601 306.286C259.912 306.286 266.65 299.105 266.65 290.247C266.65 281.388 259.912 274.208 251.601 274.208C243.289 274.208 236.551 281.388 236.551 290.247C236.551 299.105 243.289 306.286 251.601 306.286Z" fill="#FBD56F"/>
<path opacity="0.1" d="M251.601 306.286C259.912 306.286 266.65 299.105 266.65 290.247C266.65 281.388 259.912 274.208 251.601 274.208C243.289 274.208 236.551 281.388 236.551 290.247C236.551 299.105 243.289 306.286 251.601 306.286Z" fill="black"/>
<path d="M254.198 306.286C262.51 306.286 269.248 299.265 269.248 290.604C269.248 281.943 262.51 274.922 254.198 274.922C245.886 274.922 239.148 281.943 239.148 290.604C239.148 299.265 245.886 306.286 254.198 306.286Z" fill="#FBD56F"/>
<path d="M36.1216 299.061C46.3872 299.061 54.7091 297.648 54.7091 295.906C54.7091 294.163 46.3872 292.751 36.1216 292.751C25.856 292.751 17.5341 294.163 17.5341 295.906C17.5341 297.648 25.856 299.061 36.1216 299.061Z" fill="#171F4A"/>
<path d="M43.8074 290.745C44.6034 290.002 45.3502 289.126 45.5795 288.059C45.8089 286.993 45.3562 285.714 44.3412 285.324C43.2039 284.888 41.9886 285.679 41.0673 286.479C40.1459 287.278 39.0899 288.19 37.884 288.021C38.5043 287.456 38.9684 286.74 39.231 285.942C39.4937 285.144 39.5459 284.291 39.3827 283.467C39.3298 283.126 39.1857 282.807 38.9659 282.542C38.3346 281.864 37.1901 282.155 36.4342 282.689C34.0302 284.387 33.3594 287.666 33.3464 290.617C33.1039 289.552 33.3081 288.443 33.3021 287.351C33.2962 286.259 32.9981 285.049 32.0808 284.462C31.5093 284.153 30.8666 284.002 30.2179 284.023C29.1373 283.983 27.9338 284.092 27.1958 284.885C26.2788 285.871 26.5166 287.525 27.3144 288.611C28.1121 289.696 29.3255 290.377 30.4423 291.126C31.3383 291.662 32.1023 292.394 32.6777 293.267C32.7453 293.389 32.8008 293.517 32.8434 293.65H39.6179C41.1387 292.876 42.548 291.898 43.8074 290.745Z" fill="#171F4A"/>
<path d="M204.213 275.334C205.041 276.472 205.718 277.714 206.228 279.027C206.362 279.367 206.494 279.724 206.619 280.098C208.621 286.107 205.448 293.313 204.541 292.535C203.634 291.758 200.807 290.316 200.261 292.343C199.714 294.369 197.695 296.44 197.695 296.44C194.016 300.155 190.686 296.142 188.501 291.994C187.787 290.626 187.152 289.218 186.599 287.776C186.114 286.502 185.835 285.622 185.835 285.622L201.157 272.515C201.157 272.515 202.639 273.197 204.213 275.334Z" fill="#171F4A"/>
<path d="M180.064 283.715C180.893 284.853 181.57 286.095 182.079 287.409C182.214 287.748 182.345 288.105 182.47 288.479C184.473 294.488 181.3 301.694 180.392 300.917C179.485 300.139 176.658 298.697 176.112 300.724C175.565 302.75 173.546 304.822 173.546 304.822C169.868 308.537 166.538 304.523 164.352 300.376C163.638 299.008 163.003 297.599 162.451 296.157C161.965 294.884 161.687 294.003 161.687 294.003L177.009 280.896C177.009 280.896 178.49 281.579 180.064 283.715Z" fill="#171F4A"/>
<path d="M131.577 295.294C131.49 296.701 131.223 298.091 130.78 299.428C130.668 299.776 130.542 300.135 130.4 300.503C128.122 306.413 121.099 309.927 120.895 308.747C120.691 307.568 119.431 304.646 117.722 305.856C116.013 307.066 113.142 307.367 113.142 307.367C107.949 307.87 107.936 302.646 108.89 298.053C109.21 296.542 109.616 295.051 110.107 293.587C110.543 292.295 110.888 291.439 110.888 291.439L131.016 291.166C131.016 291.166 131.722 292.64 131.577 295.294Z" fill="#171F4A"/>
<path d="M105.571 288.708C105.485 290.115 105.217 291.505 104.774 292.843C104.662 293.191 104.536 293.55 104.394 293.918C102.116 299.827 95.0935 303.341 94.8891 302.162C94.6848 300.982 93.4251 298.061 91.7162 299.271C90.0073 300.481 87.1362 300.781 87.1362 300.781C81.9428 301.284 81.9305 296.061 82.8838 291.467C83.2038 289.956 83.6103 288.465 84.1013 287.001C84.5372 285.71 84.8821 284.853 84.8821 284.853L105.01 284.58C105.01 284.58 105.716 286.055 105.571 288.708Z" fill="#171F4A"/>
<path opacity="0.2" d="M204.213 275.334C205.041 276.472 205.718 277.714 206.228 279.027C206.362 279.367 206.494 279.724 206.619 280.098C208.621 286.107 205.448 293.313 204.541 292.535C203.634 291.758 200.807 290.316 200.261 292.343C199.714 294.369 197.695 296.44 197.695 296.44C194.016 300.155 190.686 296.142 188.501 291.994C187.787 290.626 187.152 289.218 186.599 287.776C186.114 286.502 185.835 285.622 185.835 285.622L201.157 272.515C201.157 272.515 202.639 273.197 204.213 275.334Z" fill="black"/>
<path opacity="0.2" d="M180.064 283.715C180.893 284.853 181.57 286.095 182.079 287.409C182.214 287.748 182.345 288.105 182.47 288.479C184.473 294.488 181.3 301.694 180.392 300.917C179.485 300.139 176.658 298.697 176.112 300.724C175.565 302.75 173.546 304.822 173.546 304.822C169.868 308.537 166.538 304.523 164.352 300.376C163.638 299.008 163.003 297.599 162.451 296.157C161.965 294.884 161.687 294.003 161.687 294.003L177.009 280.896C177.009 280.896 178.49 281.579 180.064 283.715Z" fill="black"/>
<path opacity="0.2" d="M131.577 295.294C131.49 296.701 131.223 298.091 130.78 299.428C130.668 299.776 130.542 300.135 130.4 300.503C128.122 306.413 121.099 309.927 120.895 308.747C120.691 307.568 119.431 304.646 117.722 305.856C116.013 307.066 113.142 307.367 113.142 307.367C107.949 307.87 107.936 302.646 108.89 298.053C109.21 296.542 109.616 295.051 110.107 293.587C110.543 292.295 110.888 291.439 110.888 291.439L131.016 291.166C131.016 291.166 131.722 292.64 131.577 295.294Z" fill="black"/>
<path opacity="0.2" d="M105.571 288.708C105.485 290.115 105.217 291.505 104.774 292.843C104.662 293.191 104.536 293.55 104.394 293.918C102.116 299.827 95.0935 303.341 94.8891 302.162C94.6848 300.982 93.4251 298.061 91.7162 299.271C90.0073 300.481 87.1362 300.781 87.1362 300.781C81.9428 301.284 81.9305 296.061 82.8838 291.467C83.2038 289.956 83.6103 288.465 84.1013 287.001C84.5372 285.71 84.8821 284.853 84.8821 284.853L105.01 284.58C105.01 284.58 105.716 286.055 105.571 288.708Z" fill="black"/>
<path d="M245.084 200.142C245.084 254.118 226.898 297.875 142.974 297.875C86.5797 297.875 42.9502 283.806 40.8633 200.142C39.5173 146.182 86.5796 102.409 142.974 102.409C199.368 102.409 245.084 146.165 245.084 200.142Z" fill="#171F4A"/>
<path opacity="0.2" d="M123.819 104.115H123.83C123.827 104.116 123.825 104.117 123.822 104.118L123.819 104.115Z" fill="black"/>
<path opacity="0.2" d="M124.018 104.082C124.278 104.04 124.791 103.968 125.536 103.911L123.875 104.109C123.899 104.103 123.929 104.097 123.965 104.091C123.983 104.088 123.998 104.085 124.018 104.082Z" fill="black"/>
<path opacity="0.2" d="M199.47 144.016L192.016 146.71C188.217 141.595 184.129 136.701 179.772 132.055C175.017 126.963 169.829 122.296 164.266 118.109C145.183 103.908 130.422 103.546 125.548 103.911L136.752 102.588C147.341 104.418 157.524 108.114 166.83 113.505C173.341 117.274 179.405 121.771 184.906 126.912C194.661 136.003 199.47 144.016 199.47 144.016Z" fill="black"/>
<path opacity="0.2" d="M132.092 149.105C132.092 149.105 122.253 116.178 130.601 107.198C130.601 107.198 143.719 102.708 153.557 128.152L132.092 149.105Z" fill="black"/>
<path d="M181.91 118.351C181.91 118.351 208 96.0904 219.542 100.164C219.542 100.164 228.902 110.426 209.639 129.684L181.91 118.351Z" fill="#171F4A"/>
<path opacity="0.2" d="M181.91 118.351C181.91 118.351 208 96.0904 219.542 100.164C219.542 100.164 228.902 110.426 209.639 129.684L181.91 118.351Z" fill="black"/>
<path d="M263.27 224.986C263.27 254 242.534 276.921 223.022 276.921C203.511 276.921 192.613 254 192.613 224.986C192.613 195.973 208.463 173.587 227.941 172.453C258.798 170.657 263.27 195.973 263.27 224.986Z" fill="#171F4A"/>
<path opacity="0.2" d="M263.27 224.986C263.27 254 242.534 276.921 223.022 276.921C203.511 276.921 192.613 254 192.613 224.986C192.613 195.973 208.463 173.587 227.941 172.453C258.798 170.657 263.27 195.973 263.27 224.986Z" fill="black"/>
<path d="M221.83 237.708C225.452 237.708 228.389 233.956 228.389 229.327C228.389 224.698 225.452 220.945 221.83 220.945C218.207 220.945 215.271 224.698 215.271 229.327C215.271 233.956 218.207 237.708 221.83 237.708Z" fill="#2C3C90"/>
<path d="M245.084 230.524C248.706 230.524 251.643 226.772 251.643 222.143C251.643 217.514 248.706 213.761 245.084 213.761C241.462 213.761 238.525 217.514 238.525 222.143C238.525 226.772 241.462 230.524 245.084 230.524Z" fill="#2C3C90"/>
<path d="M186.179 121.506C186.183 123.384 185.747 125.236 184.906 126.912C183.795 129.14 181.994 130.945 179.772 132.055C175.017 126.963 169.829 122.296 164.266 118.109C164.762 116.399 165.639 114.825 166.83 113.505C167.858 112.355 169.114 111.435 170.518 110.803C171.922 110.171 173.443 109.843 174.981 109.838C181.164 109.838 186.179 115.062 186.179 121.506Z" fill="#FAD46F"/>
</g>
<defs>
<linearGradient id="paint0_linear" x1="337.009" y1="314.643" x2="337.009" y2="111.851" gradientUnits="userSpaceOnUse">
<stop stop-color="#808080" stop-opacity="0.25"/>
<stop offset="0.53514" stop-color="#808080" stop-opacity="0.12"/>
<stop offset="1" stop-color="#808080" stop-opacity="0.1"/>
</linearGradient>
<clipPath id="clip0">
<rect width="448" height="323" fill="white"/>
</clipPath>
</defs>
</svg>
