<svg width="32" height="32" viewBox="0 0 32 32" fill="none" xmlns="http://www.w3.org/2000/svg">
<circle cx="16" cy="16" r="16" fill="white"/>
<path d="M17.0376 14.692C18.2736 14.812 19.2156 15.196 19.8636 15.844C20.5116 16.48 20.8356 17.296 20.8356 18.292C20.8356 19.012 20.6556 19.666 20.2956 20.254C19.9356 20.83 19.3956 21.292 18.6756 21.64C17.9676 21.976 17.0976 22.144 16.0656 22.144C15.1656 22.144 14.3016 22.012 13.4736 21.748C12.6456 21.472 11.9676 21.094 11.4396 20.614L12.2676 19.192C12.6996 19.6 13.2516 19.93 13.9236 20.182C14.5956 20.422 15.3096 20.542 16.0656 20.542C17.0016 20.542 17.7276 20.344 18.2436 19.948C18.7716 19.552 19.0356 19.006 19.0356 18.31C19.0356 17.614 18.7776 17.074 18.2616 16.69C17.7456 16.306 16.9656 16.114 15.9216 16.114H14.9136V14.854L18.0816 10.966H12.0156V9.4H20.3316V10.624L17.0376 14.692Z" fill="#2C3C90"/>
</svg>
