<svg width="408" height="371" viewBox="0 0 408 371" fill="none" xmlns="http://www.w3.org/2000/svg">
<path opacity="0.8" d="M128.173 247.159C149.152 260.242 165.536 278.92 180.623 297.72C195.711 316.52 210.14 336.032 228.714 352.09C240.661 362.419 255.82 371.642 270.828 370.66C285.269 369.714 295.577 359.657 303.827 349.567C310.034 341.977 315.934 333.623 316.738 323.631C317.296 316.694 315.342 309.466 315.176 302.418C314.601 277.895 335.368 260.03 357.613 249.227C368.048 244.16 379.161 239.994 388.621 233.65C398.081 227.306 405.954 218.327 407.374 207.113C408.782 195.998 403.694 184.108 396.705 173.78C382.512 152.804 360.833 136.649 339.044 122.019C290.812 89.6323 239.456 62.0262 188.235 34.5002C169.279 24.3135 150.236 14.0868 130.232 6.41033C119.123 2.14742 107.14 -1.36392 96.1935 0.522596C82.2974 2.91749 72.3298 14.7884 72.9584 28.1944C74.0128 50.6814 100.815 71.5607 97.9994 93.4188C96.4498 105.45 86.0373 113.847 74.9406 119.439C51.1356 131.435 20.1468 136.136 6.279 157.536C-3.24561 172.234 -1.82384 193.27 9.79214 209.515C21.968 226.543 45.4207 238.798 64.7968 233.392C84.7488 227.824 109.65 235.608 128.173 247.159Z" fill="url(#paint0_linear)"/>
<defs>
<linearGradient id="paint0_linear" x1="30" y1="116" x2="471.337" y2="253.512" gradientUnits="userSpaceOnUse">
<stop stop-color="#000428"/>
<stop offset="1" stop-color="#004E92"/>
</linearGradient>
</defs>
</svg>
